<svg width="48" height="48" viewBox="0 0 48 48" fill="none" xmlns="http://www.w3.org/2000/svg">
<foreignObject x="-10" y="-10" width="68" height="68"><div xmlns="http://www.w3.org/1999/xhtml" style="backdrop-filter:blur(5px);clip-path:url(#bgblur_0_2089_488_clip_path);height:100%;width:100%"></div></foreignObject><g filter="url(#filter0_i_2089_488)" data-figma-bg-blur-radius="10">
<rect width="48" height="48" rx="17" fill="white" fill-opacity="0.15"/>
<rect x="0.5" y="0.5" width="47" height="47" rx="16.5" stroke="white" stroke-opacity="0.1"/>
<path d="M29.2928 17.2929C29.6833 16.9024 30.3163 16.9024 30.7068 17.2929C31.0973 17.6834 31.0973 18.3164 30.7068 18.707L25.4129 23.9999L30.7058 29.2929L30.7752 29.369C31.0952 29.7618 31.0718 30.3409 30.7058 30.7069C30.3397 31.073 29.7607 31.0957 29.3679 30.7753L29.2918 30.7069L23.9988 25.4139L18.7078 30.7059C18.3173 31.0965 17.6842 31.0964 17.2937 30.7059C16.9032 30.3154 16.9032 29.6824 17.2937 29.2919L22.5847 23.9999L17.2927 18.7079L17.2244 18.6318C16.904 18.239 16.9267 17.66 17.2927 17.2939C17.6587 16.9279 18.2379 16.9045 18.6306 17.2245L18.7068 17.2939L23.9988 22.5858L29.2928 17.2929Z" fill="white"/>
</g>
<defs>
<filter id="filter0_i_2089_488" x="-10" y="-10" width="68" height="68" filterUnits="userSpaceOnUse" color-interpolation-filters="sRGB">
<feFlood flood-opacity="0" result="BackgroundImageFix"/>
<feBlend mode="normal" in="SourceGraphic" in2="BackgroundImageFix" result="shape"/>
<feColorMatrix in="SourceAlpha" type="matrix" values="0 0 0 0 0 0 0 0 0 0 0 0 0 0 0 0 0 0 127 0" result="hardAlpha"/>
<feOffset/>
<feGaussianBlur stdDeviation="2.75"/>
<feComposite in2="hardAlpha" operator="arithmetic" k2="-1" k3="1"/>
<feColorMatrix type="matrix" values="0 0 0 0 1 0 0 0 0 1 0 0 0 0 1 0 0 0 0.25 0"/>
<feBlend mode="normal" in2="shape" result="effect1_innerShadow_2089_488"/>
</filter>
<clipPath id="bgblur_0_2089_488_clip_path" transform="translate(10 10)"><rect width="48" height="48" rx="17"/>
</clipPath></defs>
</svg>
