<svg width="40" height="40" viewBox="0 0 40 40" fill="none" xmlns="http://www.w3.org/2000/svg">
<path d="M10 1H30C34.9706 1 39 5.02944 39 10V30C39 34.9706 34.9706 39 30 39H10C5.02944 39 1 34.9706 1 30V10C1 5.02944 5.02944 1 10 1Z" stroke="white" stroke-width="2"/>
<rect x="4" y="4" width="32" height="32" rx="7" fill="white" fill-opacity="0.15"/>
<g clip-path="url(#paint0_angular_26_2053_clip_path)" data-figma-skip-parse="true"><g transform="matrix(0 0.016 -0.016 0 20 20)"><foreignObject x="-1125" y="-1125" width="2250" height="2250"><div xmlns="http://www.w3.org/1999/xhtml" style="background:conic-gradient(from 90deg,rgba(153, 97, 152, 1) 0deg,rgba(255, 161, 254, 1) 32.323deg,rgba(162, 255, 244, 1) 90deg,rgba(162, 166, 255, 1) 135deg,rgba(255, 156, 156, 1) 157.5deg,rgba(255, 247, 162, 1) 180deg,rgba(162, 255, 165, 1) 270deg,rgba(136, 153, 97, 1) 326.665deg,rgba(153, 97, 152, 1) 360deg);height:100%;width:100%;opacity:1"></div></foreignObject></g></g><rect x="4" y="4" width="32" height="32" rx="7" data-figma-gradient-fill="{&#34;type&#34;:&#34;GRADIENT_ANGULAR&#34;,&#34;stops&#34;:[{&#34;color&#34;:{&#34;r&#34;:1.0,&#34;g&#34;:0.63461536169052124,&#34;b&#34;:0.99802494049072266,&#34;a&#34;:1.0},&#34;position&#34;:0.089786052703857422},{&#34;color&#34;:{&#34;r&#34;:0.63529413938522339,&#34;g&#34;:1.0,&#34;b&#34;:0.95686274766921997,&#34;a&#34;:1.0},&#34;position&#34;:0.250},{&#34;color&#34;:{&#34;r&#34;:0.63529413938522339,&#34;g&#34;:0.65098041296005249,&#34;b&#34;:1.0,&#34;a&#34;:1.0},&#34;position&#34;:0.3750},{&#34;color&#34;:{&#34;r&#34;:1.0,&#34;g&#34;:0.61538463830947876,&#34;b&#34;:0.61538463830947876,&#34;a&#34;:1.0},&#34;position&#34;:0.43750},{&#34;color&#34;:{&#34;r&#34;:1.0,&#34;g&#34;:0.96862745285034180,&#34;b&#34;:0.63529413938522339,&#34;a&#34;:1.0},&#34;position&#34;:0.50},{&#34;color&#34;:{&#34;r&#34;:0.63529413938522339,&#34;g&#34;:1.0,&#34;b&#34;:0.64705884456634521,&#34;a&#34;:1.0},&#34;position&#34;:0.750},{&#34;color&#34;:{&#34;r&#34;:0.53423076868057251,&#34;g&#34;:0.60000002384185791,&#34;b&#34;:0.38076922297477722,&#34;a&#34;:1.0},&#34;position&#34;:0.90740209817886353},{&#34;color&#34;:{&#34;r&#34;:0.60000002384185791,&#34;g&#34;:0.38076922297477722,&#34;b&#34;:0.59881496429443359,&#34;a&#34;:1.0},&#34;position&#34;:1.0}],&#34;stopsVar&#34;:[{&#34;color&#34;:{&#34;r&#34;:1.0,&#34;g&#34;:0.63461536169052124,&#34;b&#34;:0.99802494049072266,&#34;a&#34;:1.0},&#34;position&#34;:0.089786052703857422},{&#34;color&#34;:{&#34;r&#34;:0.63529413938522339,&#34;g&#34;:1.0,&#34;b&#34;:0.95686274766921997,&#34;a&#34;:1.0},&#34;position&#34;:0.250},{&#34;color&#34;:{&#34;r&#34;:0.63529413938522339,&#34;g&#34;:0.65098041296005249,&#34;b&#34;:1.0,&#34;a&#34;:1.0},&#34;position&#34;:0.3750},{&#34;color&#34;:{&#34;r&#34;:1.0,&#34;g&#34;:0.61538463830947876,&#34;b&#34;:0.61538463830947876,&#34;a&#34;:1.0},&#34;position&#34;:0.43750},{&#34;color&#34;:{&#34;r&#34;:1.0,&#34;g&#34;:0.96862745285034180,&#34;b&#34;:0.63529413938522339,&#34;a&#34;:1.0},&#34;position&#34;:0.50},{&#34;color&#34;:{&#34;r&#34;:0.63529413938522339,&#34;g&#34;:1.0,&#34;b&#34;:0.64705884456634521,&#34;a&#34;:1.0},&#34;position&#34;:0.750},{&#34;color&#34;:{&#34;r&#34;:0.53423076868057251,&#34;g&#34;:0.60000002384185791,&#34;b&#34;:0.38076922297477722,&#34;a&#34;:1.0},&#34;position&#34;:0.90740209817886353},{&#34;color&#34;:{&#34;r&#34;:0.60000002384185791,&#34;g&#34;:0.38076922297477722,&#34;b&#34;:0.59881496429443359,&#34;a&#34;:1.0},&#34;position&#34;:1.0}],&#34;transform&#34;:{&#34;m00&#34;:1.9594349641362686e-15,&#34;m01&#34;:-32.0,&#34;m02&#34;:36.0,&#34;m10&#34;:32.0,&#34;m11&#34;:1.9594349641362686e-15,&#34;m12&#34;:4.0},&#34;opacity&#34;:1.0,&#34;blendMode&#34;:&#34;NORMAL&#34;,&#34;visible&#34;:true}"/>
<g clip-path="url(#paint1_angular_26_2053_clip_path)" data-figma-skip-parse="true"><g transform="matrix(0 0.016 -0.016 0 20 20)"><foreignObject x="-1125" y="-1125" width="2250" height="2250"><div xmlns="http://www.w3.org/1999/xhtml" style="background:conic-gradient(from 90deg,rgba(255, 65, 245, 1) 0deg,rgba(255, 64, 64, 1) 50.6421deg,rgba(255, 182, 65, 1) 90deg,rgba(188, 255, 65, 1) 135deg,rgba(65, 255, 90, 1) 180deg,rgba(65, 255, 248, 1) 270deg,rgba(84, 65, 255, 1) 315deg,rgba(255, 65, 245, 1) 360deg);height:100%;width:100%;opacity:1"></div></foreignObject></g></g><rect x="4" y="4" width="32" height="32" rx="7" data-figma-gradient-fill="{&#34;type&#34;:&#34;GRADIENT_ANGULAR&#34;,&#34;stops&#34;:[{&#34;color&#34;:{&#34;r&#34;:1.0,&#34;g&#34;:0.25409406423568726,&#34;b&#34;:0.25409406423568726,&#34;a&#34;:1.0},&#34;position&#34;:0.14067247509956360},{&#34;color&#34;:{&#34;r&#34;:1.0,&#34;g&#34;:0.71437907218933105,&#34;b&#34;:0.25490197539329529,&#34;a&#34;:1.0},&#34;position&#34;:0.250},{&#34;color&#34;:{&#34;r&#34;:0.73921567201614380,&#34;g&#34;:1.0,&#34;b&#34;:0.25490197539329529,&#34;a&#34;:1.0},&#34;position&#34;:0.3750},{&#34;color&#34;:{&#34;r&#34;:0.25490197539329529,&#34;g&#34;:1.0,&#34;b&#34;:0.35424837470054626,&#34;a&#34;:1.0},&#34;position&#34;:0.50},{&#34;color&#34;:{&#34;r&#34;:0.25490197539329529,&#34;g&#34;:1.0,&#34;b&#34;:0.97516340017318726,&#34;a&#34;:1.0},&#34;position&#34;:0.750},{&#34;color&#34;:{&#34;r&#34;:0.32941177487373352,&#34;g&#34;:0.25490197539329529,&#34;b&#34;:1.0,&#34;a&#34;:1.0},&#34;position&#34;:0.8750},{&#34;color&#34;:{&#34;r&#34;:1.0,&#34;g&#34;:0.25490197539329529,&#34;b&#34;:0.96274507045745850,&#34;a&#34;:1.0},&#34;position&#34;:1.0}],&#34;stopsVar&#34;:[{&#34;color&#34;:{&#34;r&#34;:1.0,&#34;g&#34;:0.25409406423568726,&#34;b&#34;:0.25409406423568726,&#34;a&#34;:1.0},&#34;position&#34;:0.14067247509956360},{&#34;color&#34;:{&#34;r&#34;:1.0,&#34;g&#34;:0.71437907218933105,&#34;b&#34;:0.25490197539329529,&#34;a&#34;:1.0},&#34;position&#34;:0.250},{&#34;color&#34;:{&#34;r&#34;:0.73921567201614380,&#34;g&#34;:1.0,&#34;b&#34;:0.25490197539329529,&#34;a&#34;:1.0},&#34;position&#34;:0.3750},{&#34;color&#34;:{&#34;r&#34;:0.25490197539329529,&#34;g&#34;:1.0,&#34;b&#34;:0.35424837470054626,&#34;a&#34;:1.0},&#34;position&#34;:0.50},{&#34;color&#34;:{&#34;r&#34;:0.25490197539329529,&#34;g&#34;:1.0,&#34;b&#34;:0.97516340017318726,&#34;a&#34;:1.0},&#34;position&#34;:0.750},{&#34;color&#34;:{&#34;r&#34;:0.32941177487373352,&#34;g&#34;:0.25490197539329529,&#34;b&#34;:1.0,&#34;a&#34;:1.0},&#34;position&#34;:0.8750},{&#34;color&#34;:{&#34;r&#34;:1.0,&#34;g&#34;:0.25490197539329529,&#34;b&#34;:0.96274507045745850,&#34;a&#34;:1.0},&#34;position&#34;:1.0}],&#34;transform&#34;:{&#34;m00&#34;:1.9594349641362686e-15,&#34;m01&#34;:-32.0,&#34;m02&#34;:36.0,&#34;m10&#34;:32.0,&#34;m11&#34;:3.9443045261050590e-31,&#34;m12&#34;:4.0},&#34;opacity&#34;:1.0,&#34;blendMode&#34;:&#34;NORMAL&#34;,&#34;visible&#34;:true}"/>
<path fill-rule="evenodd" clip-rule="evenodd" d="M13.6658 26.8435C14.5608 27.7385 16.0117 27.7385 16.9067 26.8435L18.4113 25.3389C18.9914 24.7588 19.8813 24.6232 20.6079 25.0042L21.2163 25.3233C22.4273 25.9583 23.9105 25.7323 24.8773 24.7655C25.4468 24.1959 25.4468 23.2726 24.8773 22.7031L17.217 15.0427C16.6475 14.4732 15.7241 14.4732 15.1546 15.0427C14.1878 16.0096 13.9617 17.4927 14.5968 18.7037L14.9158 19.3122C15.2969 20.0388 15.1612 20.9287 14.5811 21.5088L13.0765 23.0134C12.1816 23.9083 12.1816 25.3593 13.0765 26.2543L13.6658 26.8435ZM25.7609 21.8195L18.1005 14.1592C18.0249 14.0835 17.9459 14.0133 17.864 13.9485C17.6684 13.7936 17.5706 13.7162 17.5523 13.6268C17.534 13.5374 17.5837 13.4461 17.6831 13.2635C18.2016 12.3106 18.8909 11.4366 19.4782 10.7669L19.5041 10.7373C19.7318 10.4775 19.9461 10.2332 20.1524 10.0586C20.3869 9.86006 20.6706 9.69866 21.0401 9.68711C21.4123 9.6755 21.7756 9.86236 22.0352 10.0281C22.324 10.2123 22.6171 10.4582 22.8774 10.7179C23.1381 10.9779 23.3833 11.2691 23.5683 11.5534C23.734 11.808 23.9226 12.1622 23.9231 12.5219C23.9236 12.8862 23.7688 13.1739 23.5876 13.4116C23.4704 13.5653 23.5613 13.8035 23.7523 13.8338C24.0291 13.8777 24.3033 13.944 24.5723 14.0282C25.7154 14.3856 26.8132 15.0753 27.7519 15.8064C28.6959 16.5415 29.5103 17.3435 30.0867 17.9582C30.3757 18.2664 30.6068 18.5296 30.7663 18.7167C31.0119 19.0664 31.1897 19.4147 31.1178 19.6175C31.0459 19.8203 30.8748 19.9719 30.6647 20.0188C29.6081 20.2545 28.5314 20.7266 27.6334 21.2489C27.2399 21.4778 26.8934 21.7088 26.605 21.9249C26.3875 22.0879 26.2788 22.1694 26.1852 22.1623C26.0917 22.1553 25.9864 22.0484 25.7759 21.8347L25.7609 21.8195Z" fill="black"/>
<defs>
<clipPath id="paint0_angular_26_2053_clip_path"><rect x="4" y="4" width="32" height="32" rx="7"/></clipPath><clipPath id="paint1_angular_26_2053_clip_path"><rect x="4" y="4" width="32" height="32" rx="7"/></clipPath></defs>
</svg>
