<svg width="24" height="24" viewBox="0 0 24 24" fill="none" xmlns="http://www.w3.org/2000/svg">
<path fill-rule="evenodd" clip-rule="evenodd" d="M5.5857 3.84481C6.445 3.74998 7.5197 3.74999 8.8689 3.75H13.6414C14.5798 3.74999 15.337 3.74998 15.9619 3.80999C16.6116 3.87239 17.1699 4.00316 17.7046 4.29319C18.2368 4.58183 18.6618 4.98288 19.0908 5.50097C19.5067 6.0033 20.1506 6.93469 20.7159 7.75231C21.3367 8.65034 21.8383 9.37585 22.1794 10.0115C22.5344 10.6731 22.75 11.2975 22.75 12C22.75 12.7025 22.5344 13.3269 22.1794 13.9885C21.8383 14.6241 21.3367 15.3496 20.7159 16.2477C20.1506 17.0653 19.5067 17.9967 19.0908 18.499C18.6618 19.0171 18.2368 19.4182 17.7046 19.7068C17.1699 19.9968 16.6116 20.1276 15.9619 20.19C15.337 20.25 14.5798 20.25 13.6414 20.25H8.8689C7.5197 20.25 6.445 20.25 5.5857 20.1552C4.7011 20.0576 3.9605 19.8525 3.3156 19.385C2.8022 19.0128 2.3653 18.5375 2.0272 17.9886C1.6082 17.3083 1.4247 16.5313 1.3365 15.5909C1.25 14.6683 1.25 13.4331 1.25 11.9612C1.25 10.4893 1.25 9.33169 1.3365 8.4091C1.4247 7.4687 1.6082 6.69171 2.0272 6.01137C2.3653 5.4625 2.8022 4.98716 3.3156 4.61502C3.9605 4.14753 4.7011 3.94244 5.5857 3.84481ZM15.0045 10.75C15.6924 10.75 16.25 11.3096 16.25 12C16.25 12.6904 15.6924 13.25 15.0045 13.25H14.9955C14.3076 13.25 13.75 12.6904 13.75 12C13.75 11.3096 14.3076 10.75 14.9955 10.75H15.0045ZM12.25 12C12.25 11.3096 11.6924 10.75 11.0045 10.75H10.9955C10.3076 10.75 9.75 11.3096 9.75 12C9.75 12.6904 10.3076 13.25 10.9955 13.25H11.0045C11.6924 13.25 12.25 12.6904 12.25 12ZM7.0045 10.75C7.6924 10.75 8.25 11.3096 8.25 12C8.25 12.6904 7.6924 13.25 7.0045 13.25H6.9955C6.3076 13.25 5.75 12.6904 5.75 12C5.75 11.3096 6.3076 10.75 6.9955 10.75H7.0045Z" fill="white"/>
</svg>
