<svg width="20" height="20" viewBox="0 0 20 20" fill="none" xmlns="http://www.w3.org/2000/svg">
<g clip-path="url(#clip0_35_13566)">
<path fill-rule="evenodd" clip-rule="evenodd" d="M3.51856 14.1248C3.19313 13.7994 3.19311 13.2718 3.51856 12.9463L12.9467 3.51823C13.2721 3.19279 13.7997 3.19279 14.1252 3.51823C14.4506 3.84367 14.4506 4.37131 14.1252 4.69674L4.69707 14.1248C4.37163 14.4503 3.84401 14.4503 3.51856 14.1248Z" fill="white"/>
<path fill-rule="evenodd" clip-rule="evenodd" d="M5.87558 16.4819C5.55014 16.1564 5.55014 15.6288 5.87558 15.3033L15.3037 5.87525C15.6291 5.54982 16.1567 5.54981 16.4822 5.87525C16.8076 6.2007 16.8076 6.72833 16.4822 7.05376L7.05409 16.4819C6.72865 16.8073 6.20103 16.8073 5.87558 16.4819Z" fill="white"/>
<path fill-rule="evenodd" clip-rule="evenodd" d="M5.87558 5.87525C6.20103 5.54981 6.72866 5.54982 7.05409 5.87525L9.41112 8.23227C9.73656 8.55772 9.73656 9.08534 9.41112 9.41078C9.08567 9.73623 8.55805 9.73623 8.2326 9.41078L5.87558 7.05376C5.55015 6.72833 5.55014 6.2007 5.87558 5.87525Z" fill="white"/>
<path d="M14.3038 11.3046C14.4268 11.1522 14.6216 10.9803 14.9062 10.9338L14.9132 10.9327C15.1566 10.8946 15.3501 10.9874 15.4618 11.0642C15.5727 11.1405 15.6553 11.235 15.7129 11.3113C15.8298 11.4659 15.9301 11.6613 16.0148 11.8554C16.1881 12.2527 16.3514 12.7749 16.4763 13.304C16.6013 13.8335 16.6953 14.4011 16.7175 14.891C16.7286 15.1349 16.7228 15.3803 16.6859 15.6014C16.6519 15.8041 16.5773 16.0793 16.3772 16.2915C16.1721 16.5091 15.8959 16.5979 15.6898 16.6405C15.4668 16.6867 15.2189 16.6998 14.9733 16.6953C14.4798 16.6861 13.9067 16.6032 13.3718 16.4872C12.8371 16.3712 12.3084 16.215 11.9044 16.0456C11.7069 15.9627 11.5084 15.8641 11.3506 15.748C11.2725 15.6905 11.1772 15.6092 11.0993 15.5C11.0211 15.3904 10.9267 15.2026 10.9553 14.9632C11.0047 14.549 11.3009 14.2825 11.5043 14.1372C11.7285 13.977 11.9992 13.8517 12.2443 13.7542C12.495 13.6545 13.2627 13.4043 13.4759 13.3376C13.6692 12.7422 13.8591 12.1608 14.012 11.8128C14.0899 11.6351 14.1833 11.4539 14.3038 11.3046Z" fill="white"/>
<path d="M8.69578 5.69659C8.84815 5.57363 9.02015 5.37881 9.06661 5.09416L9.06695 5.09208L9.06772 5.08719C9.10576 4.84378 9.01304 4.65033 8.93625 4.53864C8.85993 4.42764 8.7654 4.34513 8.68911 4.28745C8.5345 4.17056 8.33912 4.07028 8.14502 3.98562C7.74767 3.81231 7.22555 3.64906 6.69642 3.52414C6.16694 3.39913 5.59933 3.30515 5.10936 3.28292C4.86555 3.27187 4.62009 3.27755 4.39899 3.31455C4.19628 3.34848 3.92116 3.42315 3.70895 3.62318C3.49129 3.82837 3.40252 4.10446 3.35986 4.31058C3.3137 4.5336 3.3006 4.78154 3.30516 5.0271C3.31434 5.52065 3.39718 6.09375 3.51317 6.62858C3.62919 7.16333 3.78539 7.69206 3.95482 8.09601C4.03768 8.29354 4.13634 8.49202 4.25241 8.64981C4.30985 8.72787 4.39118 8.82323 4.50042 8.90112C4.61004 8.97927 4.79777 9.07367 5.03721 9.04512C5.45144 8.99571 5.71794 8.69948 5.86318 8.49612C6.02335 8.27185 6.14876 8.00116 6.2462 7.75613C6.34587 7.50543 6.59609 6.73777 6.66274 6.52452C7.25818 6.33119 7.83958 6.14136 8.18766 5.98846C8.3653 5.91044 8.5465 5.81707 8.69578 5.69659Z" fill="white"/>
<path fill-rule="evenodd" clip-rule="evenodd" d="M10.5896 10.5893C10.9151 10.2639 11.4427 10.2639 11.7681 10.5893L14.1252 12.9463C14.4506 13.2718 14.4506 13.7994 14.1252 14.1248C13.7997 14.4503 13.2721 14.4503 12.9467 14.1248L10.5896 11.7678C10.2642 11.4424 10.2642 10.9147 10.5896 10.5893Z" fill="white"/>
</g>
<defs>
<clipPath id="clip0_35_13566">
<rect width="20" height="20" fill="white"/>
</clipPath>
</defs>
</svg>
