<svg width="15" height="16" viewBox="0 0 15 16" fill="none" xmlns="http://www.w3.org/2000/svg">
<path d="M4.08752 8.13973C4.08749 8.12245 4.06861 8.10516 4.06546 8.0881C4.06477 8.08441 4.06411 8.08079 4.0633 8.07716C4.05993 8.06223 4.0558 8.04738 4.05005 8.03295L4.04796 8.0277C4.04796 8.0277 4.0648 8.02754 4.06477 8.02748L3.52214 6.62879V4.35526C3.52214 2.53773 2.35805 0.243852 2.30911 0.147164C2.21014 -0.0490547 1.89664 -0.0490547 1.79768 0.147164C1.74877 0.243852 0.609988 2.53773 0.609988 4.35526V6.62882L0.027551 8.02757L0.0199885 8.03298C0.0142073 8.04741 0.00736347 8.06226 0.00398847 8.0772C0.00317597 8.08082 0.00114475 8.08444 0.000457251 8.08813C-0.002699 8.10526 0.0115197 8.12248 0.0114885 8.13976C0.0114885 8.1402 0.027551 8.1406 0.027551 8.14104V14.839C0.027551 14.9999 0.100364 15.1302 0.31877 15.1302V15.7126C0.31877 15.8736 0.415395 16 0.576207 16H3.48836C3.64918 16 3.81336 15.8736 3.81336 15.7126V15.1302C3.95896 15.1302 4.10458 14.9999 4.10458 14.839V8.14101C4.10452 8.14057 4.08752 8.14016 4.08752 8.13973ZM1.19239 4.35523C1.19239 3.19235 1.73146 1.75704 2.06618 0.97782C2.40089 1.75648 2.93968 3.19095 2.93968 4.35523V4.6426H1.19239V4.35523ZM1.19239 5.22501H2.93968V6.38985H1.19239V5.22501ZM1.06461 6.97229H2.99986L3.34939 7.84594H0.715113L1.06461 6.97229ZM3.23089 15.4175H0.901176V15.1263H3.23089V15.4175ZM3.52211 14.5439H0.609957V8.42838H3.52211V14.5439Z" fill="#FFA048"/>
<path d="M9.32936 8.13973C9.32933 8.12245 9.31046 8.10516 9.3073 8.0881C9.30661 8.08441 9.30596 8.08079 9.30514 8.07716C9.30177 8.06223 9.29764 8.04738 9.29189 8.03295L9.2898 8.0277C9.2898 8.0277 9.30664 8.02754 9.30661 8.02748L8.76399 6.62879V4.35526C8.76399 2.53773 7.59989 0.243852 7.55096 0.147164C7.45199 -0.0490547 7.13849 -0.0490547 7.03952 0.147164C6.99061 0.243852 5.85183 2.53773 5.85183 4.35526V6.62882L5.26939 8.02757L5.26183 8.03298C5.25608 8.04741 5.24921 8.06226 5.24586 8.0772C5.24505 8.08082 5.24299 8.08444 5.2423 8.08813C5.23914 8.10526 5.25339 8.12248 5.25333 8.13976C5.25333 8.1402 5.26939 8.1406 5.26939 8.14104V14.839C5.26939 14.9999 5.34221 15.1302 5.56061 15.1302V15.7126C5.56061 15.8736 5.65724 16 5.81805 16H8.73021C8.89102 16 9.05521 15.8736 9.05521 15.7126V15.1302C9.2008 15.1302 9.34643 14.9999 9.34643 14.839V8.14101C9.34639 8.14057 9.32936 8.14016 9.32936 8.13973ZM6.43424 4.35523C6.43424 3.19235 6.9733 1.75704 7.30802 0.97782C7.64274 1.75648 8.18152 3.19095 8.18152 4.35523V4.6426H6.43424V4.35523ZM6.43424 5.22501H8.18152V6.38985H6.43424V5.22501ZM6.30649 6.97229H8.24174L8.59127 7.84594H5.95699L6.30649 6.97229ZM8.47274 15.4175H6.14302V15.1263H8.47274V15.4175ZM8.76396 14.5439H5.8518V8.42838H8.76396V14.5439Z" fill="#FFA048"/>
<path d="M14.5712 8.13973C14.5712 8.12245 14.5523 8.10516 14.5491 8.0881C14.5485 8.08441 14.5478 8.08079 14.547 8.07716C14.5436 8.06223 14.5395 8.04738 14.5337 8.03295L14.5316 8.0277C14.5316 8.0277 14.5485 8.02754 14.5485 8.02748L14.0058 6.62879V4.35526C14.0058 2.53773 12.8417 0.243852 12.7928 0.147164C12.6938 -0.0490547 12.3803 -0.0490547 12.2814 0.147164C12.2325 0.243852 11.0937 2.53773 11.0937 4.35526V6.62882L10.5112 8.02757L10.5037 8.03298C10.4979 8.04741 10.491 8.06226 10.4877 8.0772C10.4869 8.08082 10.4848 8.08444 10.4841 8.08813C10.481 8.10526 10.4952 8.12248 10.4952 8.13976C10.4952 8.1402 10.5112 8.1406 10.5112 8.14104V14.839C10.5112 14.9999 10.584 15.1302 10.8025 15.1302V15.7126C10.8025 15.8736 10.8991 16 11.0599 16H13.972C14.1329 16 14.297 15.8736 14.297 15.7126V15.1302C14.4426 15.1302 14.5883 14.9999 14.5883 14.839V8.14101C14.5882 8.14057 14.5712 8.14016 14.5712 8.13973ZM11.6761 4.35523C11.6761 3.19235 12.2152 1.75704 12.5499 0.97782C12.8846 1.75648 13.4234 3.19095 13.4234 4.35523V4.6426H11.6761V4.35523ZM11.6761 5.22501H13.4234V6.38985H11.6761V5.22501ZM11.5483 6.97229H13.4836L13.8331 7.84594H11.1988L11.5483 6.97229ZM13.7146 15.4175H11.3849V15.1263H13.7146V15.4175ZM14.0058 14.5439H11.0936V8.42838H14.0058V14.5439Z" fill="#FFA048"/>
<path d="M3.52211 14.5439H0.609957V8.42838H3.52211V14.5439Z" fill="#FFA048"/>
<path d="M8.76396 14.5439H5.8518V8.42838H8.76396V14.5439Z" fill="#FFA048"/>
<path d="M6.30649 6.97229H8.24174L8.59127 7.84594H5.95699L6.30649 6.97229Z" fill="#FFA048"/>
<path d="M1.06461 6.97229H2.99986L3.34939 7.84594H0.715113L1.06461 6.97229Z" fill="#FFA048"/>
<path d="M11.5483 6.97229H13.4836L13.8331 7.84594H11.1988L11.5483 6.97229Z" fill="#FFA048"/>
<path d="M14.0058 14.5439H11.0936V8.42838H14.0058V14.5439Z" fill="#FFA048"/>
<path d="M11.6761 4.35523C11.6761 3.19235 12.2152 1.75704 12.5499 0.97782C12.8846 1.75648 13.4234 3.19095 13.4234 4.35523V4.6426H11.6761V4.35523Z" fill="#FFA048"/>
<path d="M6.43424 4.35523C6.43424 3.19235 6.9733 1.75704 7.30802 0.97782C7.64274 1.75648 8.18152 3.19095 8.18152 4.35523V4.6426H6.43424V4.35523Z" fill="#FFA048"/>
<path d="M1.19239 4.35523C1.19239 3.19235 1.73146 1.75704 2.06618 0.97782C2.40089 1.75648 2.93968 3.19095 2.93968 4.35523V4.6426H1.19239V4.35523Z" fill="#FFA048"/>
</svg>
