<svg width="132" height="132" viewBox="0 0 132 132" fill="none" xmlns="http://www.w3.org/2000/svg">
<circle cx="65.575" cy="65.575" r="60.5" stroke="#48FFF4" stroke-opacity="0.22"/>
<circle cx="65.575" cy="65.575" r="65.075" stroke="#48FFF4" stroke-opacity="0.04"/>
<path d="M74.2083 49.3297C73.2941 51.8117 72.2975 54.2178 71.5522 56.7135C71.4507 57.0534 71.2784 57.1844 70.9141 57.1832C67.4287 57.1717 63.9433 57.1738 60.4579 57.1827C60.1261 57.1835 59.9388 57.0724 59.8424 56.7499C58.9031 53.6084 57.565 50.6094 56.5299 47.5021C55.7108 45.0433 55.1616 42.5357 55.0531 39.9309C55.0101 38.8978 54.9521 37.867 55.1054 36.8498C55.3113 35.4842 56.1638 34.5065 57.2674 33.7631C59.4157 32.3159 61.8268 31.651 64.3894 31.437C67.5344 31.1744 70.499 31.7757 73.2802 33.2473C74.6975 33.9973 75.836 35.0309 76.23 36.6706C76.4328 37.5147 76.3902 38.3816 76.3695 39.243C76.286 42.7265 75.4601 46.0516 74.2083 49.3297ZM70.8046 34.8401C71.5968 35.1791 72.3772 35.5393 73.0407 36.1053C73.2785 36.3081 73.5114 36.3257 73.7273 36.0814C73.9529 35.8261 73.9265 35.5665 73.6917 35.3365C73.5455 35.1933 73.3843 35.0603 73.2128 34.949C71.1679 33.6227 68.8828 33.0705 66.4882 32.8769C66.1004 32.8455 65.7803 32.9842 65.7841 33.4037C65.7877 33.7914 66.1176 33.9057 66.4641 33.9203C67.9327 33.9826 69.3436 34.318 70.8046 34.8401ZM60.9737 34.6795C61.7409 34.4433 62.5085 34.2069 63.3005 34.0671C63.6298 34.009 63.8912 33.8943 63.8436 33.5015C63.7953 33.1022 63.5015 33.0534 63.176 33.094C62.3193 33.201 61.4931 33.4292 60.6879 33.7365C60.4341 33.8334 60.2824 34.0065 60.326 34.2944C60.3747 34.6161 60.5838 34.7271 60.9737 34.6795Z" fill="#48FFF4"/>
<path d="M75.1721 94.5067C75.5323 93.4895 75.121 92.5764 74.9203 91.6596C74.0206 87.5493 73.0835 83.4473 72.1661 79.3408C71.9719 78.4717 71.5455 77.7647 70.7458 77.3509C70.1552 77.0452 70.3781 76.5349 70.4071 76.1135C70.4367 75.6819 70.8658 75.8172 71.1354 75.8201C72.2214 75.8318 73.3105 75.7418 74.3933 75.8735C75.8307 76.0483 76.8718 76.789 77.4517 78.1225C79.8272 83.5853 82.2112 89.0446 84.5558 94.5207C85.7739 97.3658 83.9917 100.019 80.9064 100.02C70.764 100.023 60.6216 100.023 50.4792 100.018C48.0673 100.017 46.3448 98.3423 46.417 96.0884C46.4333 95.578 46.5686 95.09 46.771 94.6229C49.1177 89.2083 51.474 83.798 53.8094 78.3786C54.5563 76.6453 55.8598 75.8201 57.7211 75.8189C58.5834 75.8184 59.4459 75.8108 60.3081 75.8231C60.5508 75.8266 60.9225 75.7204 60.9596 76.0761C61.001 76.4741 61.2255 77.0059 60.7494 77.2591C59.7737 77.7778 59.3378 78.61 59.1638 79.6386C59.1042 79.9908 58.9144 80.1366 58.5437 80.1225C57.8885 80.0975 57.2316 80.1194 56.5756 80.1123C56.2555 80.1088 55.9996 80.2107 55.9656 80.5529C55.9285 80.9261 56.201 81.1179 56.5163 81.1386C57.0565 81.1742 57.6016 81.1508 58.144 81.1319C58.7313 81.1115 58.8151 81.1943 58.6771 81.7678C58.3958 82.9369 58.5931 82.7991 57.3851 82.8137C56.8978 82.8196 56.4103 82.818 55.9229 82.8128C55.5868 82.8092 55.3109 82.9014 55.2779 83.2817C55.2435 83.6792 55.5537 83.8079 55.8552 83.837C56.3197 83.8818 56.791 83.8529 57.259 83.8674C57.5355 83.876 57.8211 83.8139 58.113 83.9554C58.1507 84.386 57.9914 84.7887 57.8984 85.2004C57.8358 85.4777 57.6204 85.5177 57.3776 85.5166C56.6653 85.5135 55.9528 85.5194 55.2405 85.5152C54.9067 85.5133 54.6197 85.5899 54.6042 85.9821C54.5869 86.4164 54.9032 86.4968 55.2499 86.5C55.8497 86.5055 56.4498 86.5107 57.0495 86.5001C57.4477 86.493 57.6018 86.652 57.5003 87.049C57.098 88.6236 57.4477 88.3868 55.8914 88.408C55.4228 88.4144 54.954 88.4062 54.4855 88.4156C54.1844 88.4216 53.91 88.4896 53.8998 88.87C53.8893 89.2576 54.1257 89.3988 54.4743 89.4008C55.1117 89.4044 55.7493 89.4122 56.3863 89.3984C56.8094 89.3892 56.9384 89.5241 56.8464 89.9698C56.5343 91.4815 56.5504 91.4848 55.029 91.484C54.6166 91.4838 54.204 91.4897 53.7917 91.4827C53.4311 91.4766 53.1982 91.6428 53.1894 92.0001C53.1801 92.3775 53.4636 92.517 53.7912 92.5252C54.4657 92.5421 55.1409 92.5316 55.8157 92.5376C55.924 92.5386 56.0319 92.5665 56.1631 92.5852C56.2251 93.1975 55.9618 93.7679 56.146 94.3761C56.5138 95.5903 57.543 96.4847 58.8157 96.489C63.4088 96.5042 68.002 96.5116 72.595 96.4844C73.8834 96.4767 74.6996 95.7194 75.1721 94.5067Z" fill="#48FFF4"/>
<path d="M62.0482 74.0125C62.0486 72.8507 62.0614 71.745 62.043 70.6398C62.036 70.222 62.1496 70.0304 62.6088 70.0343C64.6511 70.0514 66.6936 70.0476 68.736 70.0355C69.1555 70.033 69.3356 70.1549 69.3347 70.6127C69.3225 76.3653 69.3228 82.1178 69.3346 87.8703C69.3356 88.3252 69.0854 88.5086 68.7325 88.6327C67.4019 89.1004 66.0292 89.21 64.6348 89.0689C63.965 89.0011 63.3004 88.8923 62.6644 88.6503C62.2343 88.4867 62.0344 88.2336 62.0366 87.7287C62.0568 83.1754 62.0483 78.6221 62.0482 74.0125Z" fill="#48FFF4"/>
<path d="M72.2466 84.4632C72.9118 87.4262 73.578 90.3406 74.228 93.2586C74.5022 94.4897 73.6155 95.4975 72.2432 95.5103C70.5008 95.5265 68.7581 95.515 67.0155 95.5148C64.4485 95.5146 61.8814 95.5168 59.3144 95.5122C57.6209 95.5092 56.8524 94.5351 57.2259 92.8896C58.235 88.4436 59.2404 83.9968 60.248 79.5504C60.3423 79.1343 60.4415 78.7193 60.8841 78.4994C61.0714 78.7162 60.9963 78.9498 60.9967 79.1617C61.0025 82.066 61.022 84.9706 60.9865 87.8745C60.9771 88.6496 61.3203 89.1089 61.9461 89.4363C62.55 89.7522 63.2053 89.9063 63.8748 90.0056C65.6589 90.2701 67.4179 90.2201 69.124 89.5662C69.9769 89.2393 70.4149 88.6971 70.395 87.6954C70.3385 84.8484 70.3748 81.9996 70.3782 79.1515C70.3784 78.9491 70.3345 78.7394 70.4637 78.4857C70.9094 78.6855 71.0311 79.0865 71.1247 79.4936C71.5016 81.1333 71.8697 82.7751 72.2466 84.4632Z" fill="#48FFF4"/>
<path d="M61.6192 64.9938C61.4929 63.8091 61.3012 62.6862 61.0601 61.5716C60.8248 60.4842 60.5875 59.3973 60.3406 58.2617C63.926 58.2617 67.4386 58.2617 70.9316 58.2617C71.0623 58.4583 70.9917 58.6177 70.9499 58.7785C70.124 61.9545 69.6062 65.1795 69.4296 68.4568C69.4075 68.8658 69.2363 69.0047 68.836 69.0022C66.756 68.9893 64.6758 68.9854 62.5959 69.0024C62.1398 69.0061 61.9724 68.8464 61.9453 68.3925C61.8785 67.2733 61.809 66.1527 61.6192 64.9938Z" fill="#48FFF4"/>
<path d="M52.0658 40.713C52.0688 40.2083 52.0451 39.7575 52.0805 39.3113C52.1503 38.4323 52.8036 37.8887 53.6241 37.9772C53.8375 38.0003 54.0032 38.0631 53.9954 38.3C53.9376 40.059 54.1918 41.7966 54.3451 43.5411C54.3464 43.5561 54.3293 43.5727 54.3207 43.5885C52.8506 43.9645 52.0698 43.3765 52.0668 41.891C52.066 41.517 52.0661 41.143 52.0658 40.713Z" fill="#48FFF4"/>
<g filter="url(#filter0_d_140_266)">
<path d="M98.1727 52.575L95.8047 48.495H93.6287V52.575H91.7887V41.375H96.2687C97.2714 41.375 98.1194 41.727 98.8127 42.431C99.5167 43.1243 99.8687 43.9723 99.8687 44.975C99.8687 45.6897 99.6607 46.3457 99.2447 46.943C98.8394 47.5297 98.306 47.9563 97.6447 48.223L100.189 52.575H98.1727ZM93.6287 43.103V46.847H96.2687C96.7594 46.847 97.1754 46.6657 97.5167 46.303C97.858 45.9403 98.0287 45.4977 98.0287 44.975C98.0287 44.4523 97.858 44.0097 97.5167 43.647C97.1754 43.2843 96.7594 43.103 96.2687 43.103H93.6287Z" fill="#48FFF4"/>
</g>
<g filter="url(#filter1_d_140_266)">
<path d="M98.0165 60.375H99.8565V71.575H98.4165L93.1365 63.975V71.575H91.2965V60.375H92.7365L98.0165 67.975V60.375Z" fill="#48FFF4"/>
</g>
<g filter="url(#filter2_d_140_266)">
<path d="M95.3762 79.375C96.9122 79.375 98.1869 79.9137 99.2002 80.991C100.224 82.0683 100.736 83.3963 100.736 84.975C100.736 86.543 100.224 87.871 99.2002 88.959C98.1869 90.0363 96.9122 90.575 95.3762 90.575H90.9762V79.375H95.3762ZM95.3762 88.815C96.4322 88.815 97.2909 88.4523 97.9522 87.727C98.6242 87.0017 98.9602 86.0843 98.9602 84.975C98.9602 83.855 98.6242 82.9377 97.9522 82.223C97.2909 81.4977 96.4322 81.135 95.3762 81.135H92.8162V88.815H95.3762Z" fill="#48FFF4"/>
</g>
<defs>
<filter id="filter0_d_140_266" x="87.7888" y="41.375" width="16.3999" height="19.2" filterUnits="userSpaceOnUse" color-interpolation-filters="sRGB">
<feFlood flood-opacity="0" result="BackgroundImageFix"/>
<feColorMatrix in="SourceAlpha" type="matrix" values="0 0 0 0 0 0 0 0 0 0 0 0 0 0 0 0 0 0 127 0" result="hardAlpha"/>
<feOffset dy="4"/>
<feGaussianBlur stdDeviation="2"/>
<feComposite in2="hardAlpha" operator="out"/>
<feColorMatrix type="matrix" values="0 0 0 0 0 0 0 0 0 0 0 0 0 0 0 0 0 0 0.25 0"/>
<feBlend mode="normal" in2="BackgroundImageFix" result="effect1_dropShadow_140_266"/>
<feBlend mode="normal" in="SourceGraphic" in2="effect1_dropShadow_140_266" result="shape"/>
</filter>
<filter id="filter1_d_140_266" x="87.2966" y="60.375" width="16.5598" height="19.2" filterUnits="userSpaceOnUse" color-interpolation-filters="sRGB">
<feFlood flood-opacity="0" result="BackgroundImageFix"/>
<feColorMatrix in="SourceAlpha" type="matrix" values="0 0 0 0 0 0 0 0 0 0 0 0 0 0 0 0 0 0 127 0" result="hardAlpha"/>
<feOffset dy="4"/>
<feGaussianBlur stdDeviation="2"/>
<feComposite in2="hardAlpha" operator="out"/>
<feColorMatrix type="matrix" values="0 0 0 0 0 0 0 0 0 0 0 0 0 0 0 0 0 0 0.25 0"/>
<feBlend mode="normal" in2="BackgroundImageFix" result="effect1_dropShadow_140_266"/>
<feBlend mode="normal" in="SourceGraphic" in2="effect1_dropShadow_140_266" result="shape"/>
</filter>
<filter id="filter2_d_140_266" x="86.9763" y="79.375" width="17.7598" height="19.2" filterUnits="userSpaceOnUse" color-interpolation-filters="sRGB">
<feFlood flood-opacity="0" result="BackgroundImageFix"/>
<feColorMatrix in="SourceAlpha" type="matrix" values="0 0 0 0 0 0 0 0 0 0 0 0 0 0 0 0 0 0 127 0" result="hardAlpha"/>
<feOffset dy="4"/>
<feGaussianBlur stdDeviation="2"/>
<feComposite in2="hardAlpha" operator="out"/>
<feColorMatrix type="matrix" values="0 0 0 0 0 0 0 0 0 0 0 0 0 0 0 0 0 0 0.25 0"/>
<feBlend mode="normal" in2="BackgroundImageFix" result="effect1_dropShadow_140_266"/>
<feBlend mode="normal" in="SourceGraphic" in2="effect1_dropShadow_140_266" result="shape"/>
</filter>
</defs>
</svg>
