<svg xmlns="http://www.w3.org/2000/svg" width="32" height="32" viewBox="0 0 32 32" fill="none">
  <path d="M23.9237 11.7894H19.6537L19.0697 6.90625H13.0563L12.4722 11.7894H1.91424C1.33518 11.7894 0.863049 12.2535 0.852862 12.8323L0.807861 15.3987H24.9853V12.851C24.9852 12.2646 24.51 11.7894 23.9237 11.7894Z" fill="#FFFFFF"/>
  <path d="M19.2809 1.93901C18.6482 0.743003 17.4152 0 16.063 0C14.7108 0 13.4778 0.743003 12.8451 1.93901C12.5739 2.4517 12.5907 3.05439 12.8901 3.55151C13.0203 3.76758 13.1931 3.94577 13.3945 4.07827L13.2256 5.49071H18.9004L18.7315 4.07827C18.9328 3.9457 19.1057 3.76758 19.2358 3.55151C19.5352 3.05451 19.552 2.4517 19.2809 1.93901Z" fill="#FFFFFF"/>
  <path d="M30.2978 24.5244C29.3373 24.5244 28.6215 24.0233 28.19 23.603C27.7777 23.2013 27.1206 23.2014 26.7084 23.603C26.3368 23.9651 25.7536 24.3861 24.9852 24.4961V21.8387C25.8546 21.7681 26.6994 21.4591 27.4492 20.9414C28.3092 21.5351 29.2941 21.8546 30.2978 21.8546C30.884 21.8546 31.3594 21.3792 31.3594 20.793C31.3594 20.2067 30.884 19.7314 30.2978 19.7314C29.3372 19.7314 28.6214 19.2304 28.19 18.81C27.7777 18.4084 27.1206 18.4084 26.7083 18.81C26.3367 19.1721 25.7536 19.5932 24.9851 19.7032V16.8135H0.782984L0.640546 24.9335C0.637421 25.1112 0.679546 25.5517 0.687734 25.6049C0.777047 26.1843 1.22317 26.6474 1.80943 26.6474C2.64149 26.6474 3.46049 26.4271 4.20619 26.0136H5.11019C5.85613 26.4271 6.67519 26.6474 7.50732 26.6474C8.33945 26.6474 9.15852 26.4271 9.90446 26.0136H10.8074C11.5532 26.4271 12.3723 26.6474 13.2046 26.6474C14.0367 26.6474 14.8557 26.4271 15.6014 26.0136H16.5054C17.2513 26.4271 18.0704 26.6474 18.9025 26.6474C19.7347 26.6474 20.5537 26.4271 21.2994 26.0136H22.2033C22.9492 26.4271 23.7683 26.6474 24.6005 26.6474C25.6042 26.6474 26.5891 26.328 27.4491 25.7342C28.3091 26.328 29.294 26.6474 30.2977 26.6474C30.884 26.6474 31.3593 26.1721 31.3593 25.5858C31.3593 24.9996 30.8841 24.5244 30.2978 24.5244Z" fill="#FFFFFF"/>
  <path d="M30.2978 29.8767C29.3373 29.8767 28.6215 29.3757 28.19 28.9554C27.7777 28.5537 27.1206 28.5537 26.7084 28.9554C26.277 29.3756 25.5612 29.8766 24.6006 29.8766C23.6396 29.8766 22.9237 29.3754 22.4922 28.9547C22.0799 28.5529 21.4224 28.5529 21.0101 28.9549C20.579 29.3754 19.8634 29.8765 18.9027 29.8765C17.9417 29.8765 17.2258 29.3753 16.7943 28.9547C16.3819 28.5529 15.7245 28.5529 15.3122 28.9548C14.881 29.3752 14.1654 29.8764 13.2048 29.8764C12.2442 29.8764 11.5284 29.3754 11.097 28.9552C10.6848 28.5535 10.0276 28.5535 9.61533 28.9552C9.18389 29.3755 8.46808 29.8765 7.50751 29.8765C6.54657 29.8765 5.83063 29.3753 5.39913 28.9547C4.98675 28.5529 4.32931 28.5529 3.91706 28.9548C3.48587 29.3752 2.77024 29.8764 1.80961 29.8764C1.22336 29.8764 0.748047 30.3517 0.748047 30.938C0.748047 31.5242 1.22336 31.9996 1.80961 31.9996C2.81343 31.9996 3.79856 31.6799 4.65837 31.086C5.51844 31.68 6.50369 31.9996 7.50757 31.9996C8.51114 31.9996 9.49621 31.6801 10.3562 31.0864C11.2162 31.6801 12.2011 31.9996 13.2048 31.9996C14.2087 31.9996 15.1938 31.6799 16.0536 31.086C16.9137 31.68 17.8989 31.9996 18.9028 31.9996C19.9067 31.9996 20.8917 31.6799 21.7516 31.086C22.6116 31.68 23.5969 31.9996 24.6008 31.9996C25.6045 31.9996 26.5895 31.6801 27.4494 31.0864C28.3094 31.6801 29.2943 31.9996 30.298 31.9996C30.8843 31.9996 31.3596 31.5242 31.3596 30.938C31.3596 30.3519 30.8841 29.8767 30.2978 29.8767Z" fill="#FFFFFF"/>
</svg>
