<svg xmlns="http://www.w3.org/2000/svg" width="32" height="32" viewBox="0 0 32 32" fill="none">
  <path d="M12.2734 1.14062C12.5178 2.33844 12.2167 3.504 11.3534 4.60937C10.3626 5.87825 8.59268 7.0375 6.05281 7.80862C3.87531 8.46969 2.40306 9.63381 1.61531 10.9922C0.827432 12.3506 0.739057 13.8899 1.25781 15.2109C2.18431 17.5699 5.03281 19.1434 8.83781 18.1758C9.64299 17.9225 10.5547 17.5508 11.2734 17.1016C11.4303 17.0036 11.5752 16.9028 11.7071 16.8007C11.5267 16.632 11.3677 16.4349 11.2383 16.2109C11.1956 16.1371 11.1572 16.0619 11.1231 15.9863C10.3076 16.4892 9.26412 17.0008 7.90231 17.1973C4.90643 17.7575 2.99624 16.4467 2.34368 14.7852C1.95262 13.7896 2.00781 12.6423 2.62493 11.5782C3.24206 10.5141 4.43756 9.51944 6.39243 8.92581C9.09762 8.10456 11.0828 6.85269 12.2734 5.32819C13.259 4.06606 13.6734 2.59681 13.455 1.14069L12.2734 1.14062ZM13.3887 10.6075C13.3394 10.6075 13.2894 10.6075 13.2402 10.6094C12.5237 10.6353 11.8008 10.8332 11.1367 11.2169C9.48524 12.1701 8.69256 13.9771 8.99606 15.7325C9.75918 15.4641 10.3771 15.0904 10.9277 14.7227C11.0163 14.0303 11.4233 13.3933 12.0977 13.0039C12.4937 12.7752 12.928 12.6624 13.3554 12.6602C14.1714 12.6558 14.9597 13.0542 15.3964 13.8106C16.0619 14.9631 15.6506 16.4964 14.498 17.1621C13.9627 17.4711 13.3658 17.5364 12.8124 17.4023C12.5357 17.6573 12.2207 17.8865 11.8924 18.0917C11.562 18.2983 11.21 18.4848 10.8514 18.6523C11.7996 19.3198 12.9746 19.6004 14.1171 19.4101H14.1189L18.6424 27.248C19.7218 29.1172 21.3006 30.2609 22.9414 30.6522C24.582 31.0434 26.2376 30.7247 27.582 29.9003C30.2707 28.2516 31.7295 24.4306 29.6776 20.8768L28.6445 19.0859L28.6347 19.0684C27.4087 16.8164 25.8194 15.2869 23.9257 14.3632C24.7243 17.2329 25.0132 20.1027 24.9316 22.9726L26.7246 20.8476L27.0312 20.6601L27.6875 21.795C29.0596 24.1716 27.9121 26.3397 26.3672 27.2871C24.1357 28.3207 22.4567 28.0382 21.0781 25.8418L16.5919 18.0683C17.8869 16.6667 18.1981 14.5026 17.2031 12.7792C16.3906 11.3719 14.9133 10.6022 13.3887 10.6074L13.3887 10.6075Z" fill="#FF4848"/>
</svg>
