<svg width="32" height="32" viewBox="0 0 32 32" fill="none" xmlns="http://www.w3.org/2000/svg">
<path d="M1.5625 1.56152V3.43777H5.10563L6.95625 8.56215L1.5625 8.5559V11.4371L9.2 11.4309C7.98125 8.06215 6.66875 4.4934 5.60625 1.56215L1.5625 1.56152ZM1.5625 12.5621V28.0496C1.61125 28.0184 1.6575 27.9871 1.7075 27.9559C2.55312 27.4371 3.56187 26.8746 4.5575 26.8746C5.55625 26.8746 6.28125 27.4996 6.9125 27.9996C7.54375 28.4996 8.06875 28.8746 8.5625 28.8746C9.05625 28.8746 9.5875 28.4996 10.2125 27.9996C10.8375 27.4996 11.5625 26.8809 12.5562 26.8809C13.5562 26.8809 14.2812 27.4996 14.9125 27.9934C15.5375 28.4934 16.0688 28.8746 16.5625 28.8746C16.6313 28.8746 16.7 28.8622 16.775 28.8496C17.325 28.4059 18.0063 27.7496 18.7188 26.9496C19.9625 25.5559 21.3563 23.7309 22.6625 21.8121C23.9563 19.8871 25.1688 17.8746 26.0438 16.1121C26.75 14.6934 27.2125 13.4246 27.3687 12.5621H1.5625ZM12 14.4371H21.9937L22 15.5621L12.0063 15.5684L12 14.4371ZM16.5562 17.5621V18.9996H17.9937L18 20.1246L16.5562 20.1309V23.7746L16.5938 23.7559C16.875 23.5809 17.1812 23.3246 17.475 23.0434C17.7563 22.7559 18.0125 22.4434 18.1875 22.1621C18.3563 21.8809 18.4312 21.6309 18.4312 21.5684L19.5562 21.5621C19.55 22.0059 19.375 22.3809 19.1437 22.7559C18.9125 23.1309 18.6062 23.4996 18.2687 23.8434C17.925 24.1746 17.5562 24.4809 17.1812 24.7121C16.8062 24.9434 16.4375 25.1246 16 25.1246C15.5562 25.1246 15.1875 24.9434 14.8125 24.7121C14.4312 24.4809 14.0625 24.1746 13.725 23.8371C13.3813 23.4934 13.0813 23.1246 12.8438 22.7496C12.6125 22.3746 12.4312 22.0059 12.4312 21.5684L13.5562 21.5621C13.5562 21.6246 13.6313 21.8746 13.8 22.1559C13.975 22.4434 14.2312 22.7496 14.5188 23.0434C14.8063 23.3246 15.1187 23.5809 15.4062 23.7559C15.4125 23.7621 15.425 23.7684 15.4312 23.7746V20.1309H13.9937V19.0059H15.4312V17.5684L16.5562 17.5621ZM28.425 27.9934C27.9812 28.0059 27.5062 28.3434 26.925 28.8246C26.2937 29.3372 25.575 29.9996 24.5625 29.9934C23.5625 29.9934 22.8375 29.3746 22.2062 28.8809C21.5812 28.3809 21.05 27.9996 20.5625 27.9996C20.0625 27.9996 19.5375 28.3746 18.9125 28.8746C18.2875 29.3746 17.5562 29.9996 16.5625 29.9996C15.5688 29.9996 14.8375 29.3746 14.2063 28.8809C13.5813 28.3809 13.05 28.0059 12.5625 28.0059C12.0625 28.0059 11.5375 28.3809 10.9125 28.8809C10.2875 29.3746 9.5625 29.9996 8.56875 29.9996C7.56875 29.9996 6.8375 29.3746 6.21187 28.8746C5.58313 28.3746 5.05375 27.9996 4.55813 27.9996C4.06437 27.9996 3.07625 28.4371 2.29625 28.9121C1.72313 29.2684 1.33875 29.5496 1.125 29.7121V30.8809L30.8687 30.9684V29.7559C30.7375 29.5934 30.4688 29.3059 30.0688 28.9434C29.525 28.4559 28.8125 28.0246 28.5125 27.9996C28.4875 27.9996 28.4562 27.9934 28.425 27.9934Z" fill="#48CBFF"/>
</svg>
