<svg xmlns="http://www.w3.org/2000/svg" width="47" height="32" viewBox="0 0 47 32" fill="none">
  <path d="M43.1599 10.9334C40.8751 10.9334 37.6628 11.1854 33.6139 11.6842L33.4824 11.701L33.3824 11.6089L29.5836 8.03805L12.9389 8L13.1678 8.85862L16.0539 8.87813L16.7351 14.3601L15.4306 14.6077L6.05213 17.0271L3.00285 21.6831L0 21.6212L1.07048 24H39.0182C39.9643 22.946 47.015 14.9772 47 11.7239C46.9992 11.5922 46.8107 10.9334 43.1599 10.9334ZM21.402 13.5218C20.0149 13.7614 18.7359 13.9895 17.7021 14.1824L17.4041 14.2372L17.3901 14.1372L16.7045 8.85683H20.9839L20.9971 8.93813L21.6809 13.4738L21.402 13.5218ZM27.3157 12.5508C25.8559 12.7763 24.3251 13.0247 22.6348 13.3096L22.348 13.3582L22.3332 13.2618L21.6336 8.85781H26.745L26.7626 8.93032L27.6271 12.5038L27.3157 12.5508ZM31.9185 11.7797C31.1785 11.8751 30.6622 11.9769 30.1169 12.083C29.6452 12.1751 29.1744 12.2687 28.5422 12.3625L28.2852 12.4014L27.3813 8.857H29.4223L29.4495 8.88089L32.5383 11.6984L31.9185 11.7797Z" fill="#B648FF"/>
</svg>
