<svg xmlns="http://www.w3.org/2000/svg" width="32" height="32" viewBox="0 0 32 32" fill="none">
  <path d="M17.4907 6.68396C17.4907 5.87404 16.8134 5.21755 15.9771 5.21755C15.1436 5.21755 14.469 5.87475 14.469 6.68396C14.469 7.49318 15.1442 8.15038 15.9771 8.15038C16.8147 8.14974 17.4907 7.49318 17.4907 6.68396ZM6.5946 0C4.93775 0 3.5946 1.34315 3.5946 3V21.8115C3.5946 23.4683 4.93775 24.8115 6.5946 24.8115H9.75818C10.7812 24.8115 11.7337 25.3328 12.2851 26.1945L13.4733 28.0513C14.6532 29.8953 17.347 29.8954 18.527 28.0515L19.7156 26.1943C20.267 25.3327 21.2194 24.8115 22.2424 24.8115H25.4054C27.0622 24.8115 28.4054 23.4683 28.4054 21.8115V3C28.4054 1.34315 27.0622 0 25.4054 0H6.5946ZM23.5485 16.796C23.4617 17.3855 22.7439 17.6289 22.3164 17.2139C22.0494 16.9548 21.6336 16.9417 21.3819 17.2156C20.4669 18.2108 19.2828 19.7965 15.8465 19.8833C13.0377 19.8833 11.6629 18.3684 10.5717 17.3525C10.3223 17.1203 9.93977 17.1365 9.69509 17.3738C9.30256 17.7546 8.64392 17.5343 8.55937 16.9941L8.30348 15.359C8.14393 14.3396 9.01812 13.4575 10.039 13.6078L11.7095 13.8539C12.2817 13.9381 12.5088 14.642 12.0938 15.0448C11.861 15.2708 11.8163 15.6263 12.0212 15.8777C12.2177 16.1188 12.5006 16.4249 12.8628 16.7115C13.8576 17.499 14.9999 16.5094 14.9991 15.2406L14.9969 11.5259C14.9962 10.2494 14.013 9.17504 13.3949 8.0582C13.1756 7.66203 13.0511 7.20922 13.0511 6.72701C13.0511 5.15717 14.3614 3.88368 15.9798 3.88368C17.5996 3.88368 18.9113 5.15646 18.9113 6.72701C18.9113 7.20848 18.7875 7.66004 18.5692 8.05502C17.9382 9.1971 16.917 10.293 16.9214 11.5978C16.9297 14.1195 16.9359 17.616 16.9111 17.616C18.1731 17.5812 19.3748 16.3314 19.9364 15.6525C20.136 15.4112 20.1025 15.0639 19.8777 14.8459C19.4963 14.4762 19.7049 13.8296 20.2305 13.7524L22.0331 13.4876C23.0531 13.3377 23.929 14.214 23.7787 15.2339L23.5485 16.796Z" fill="#FFFFFF"/>
</svg>
