<svg width="128" height="128" viewBox="0 0 128 128" fill="none" xmlns="http://www.w3.org/2000/svg"><path fill-rule="evenodd" clip-rule="evenodd" d="M87.9998 64C90.9454 64 93.3331 66.3877 93.3331 69.3333V70.7728C96.5294 71.6021 99.4313 73.1595 101.84 75.2581L103.75 74.0107C106.216 72.4 109.521 73.0939 111.132 75.56C112.742 78.0261 112.049 81.3307 109.583 82.9413L107.802 84.1045C108.506 86.1659 108.889 88.3739 108.889 90.6667C108.889 92.96 108.506 95.168 107.801 97.2299L109.581 98.392C112.047 100.003 112.741 103.307 111.13 105.773C109.519 108.239 106.214 108.933 103.748 107.323L101.839 106.076C99.4307 108.174 96.5289 109.731 93.3331 110.561V112C93.3331 114.946 90.9454 117.333 87.9998 117.333C85.0542 117.333 82.6665 114.946 82.6665 112V110.561C79.4702 109.731 76.5689 108.174 74.1603 106.076L72.2515 107.323C69.7854 108.933 66.4803 108.239 64.8697 105.773C63.259 103.307 63.9529 100.003 66.419 98.392L68.1982 97.2299C67.4937 95.168 67.1107 92.96 67.1107 90.6667C67.1107 88.3739 67.4937 86.1659 68.1977 84.1045L66.4169 82.9413C63.9507 81.3307 63.2569 78.0261 64.8675 75.56C66.4782 73.0939 69.7833 72.4 72.2494 74.0107L74.1598 75.2581C76.5678 73.1595 79.4702 71.6021 82.6665 70.7728V69.3333C82.6665 66.3877 85.0542 64 87.9998 64ZM87.9998 80.7621C84.4083 80.7621 81.2825 82.5477 79.4617 85.2181C78.3929 86.7851 77.7774 88.6517 77.7774 90.6667C77.7774 92.6821 78.3934 94.5488 79.4622 96.1157C81.283 98.7861 84.4089 100.571 87.9998 100.571C91.5907 100.571 94.7166 98.7861 96.5374 96.1157C97.6062 94.5488 98.2222 92.6821 98.2222 90.6667C98.2222 88.6517 97.6062 86.7851 96.5379 85.2181C94.7171 82.5477 91.5913 80.7621 87.9998 80.7621Z" fill="white"/><path fill-rule="evenodd" clip-rule="evenodd" d="M16 15.9998C16 13.0543 18.3878 10.6665 21.3333 10.6665H106.667C109.612 10.6665 112 13.0543 112 15.9998C112 18.9453 109.612 21.3332 106.667 21.3332H21.3333C18.3878 21.3332 16 18.9453 16 15.9998Z" fill="white"/><path fill-rule="evenodd" clip-rule="evenodd" d="M16 47.9998C16 45.0543 18.3878 42.6665 21.3333 42.6665H106.667C109.612 42.6665 112 45.0543 112 47.9998C112 50.9453 109.612 53.3332 106.667 53.3332H21.3333C18.3878 53.3332 16 50.9453 16 47.9998Z" fill="white"/><path fill-rule="evenodd" clip-rule="evenodd" d="M16 79.9998C16 77.0542 18.3878 74.6665 21.3333 74.6665H48C50.9455 74.6665 53.3333 77.0542 53.3333 79.9998C53.3333 82.9454 50.9455 85.3332 48 85.3332H21.3333C18.3878 85.3332 16 82.9454 16 79.9998Z" fill="white"/></svg>