<svg width="40" height="40" viewBox="0 0 40 40" fill="none" xmlns="http://www.w3.org/2000/svg"><rect width="40" height="40" rx="20" fill="white" fill-opacity="0.2"/><path fill-rule="evenodd" clip-rule="evenodd" d="M28.5415 26.2501C28.5415 27.5157 27.5155 28.5417 26.2498 28.5417L13.7498 28.5417C12.4842 28.5417 11.4582 27.5157 11.4582 26.2501L11.4582 13.7501C11.4582 12.4844 12.4842 11.4584 13.7498 11.4584L26.2498 11.4584C27.5155 11.4584 28.5415 12.4844 28.5415 13.7501L28.5415 26.2501ZM23.1962 17.7106C23.5402 17.4048 24.0669 17.4358 24.3727 17.7798C24.6784 18.1238 24.6474 18.6505 24.3035 18.9563L20.5534 22.2896C20.2377 22.5702 19.7619 22.5702 19.4462 22.2896L15.6962 18.9563C15.3522 18.6505 15.3213 18.1238 15.627 17.7798C15.9328 17.4358 16.4595 17.4048 16.8035 17.7106L19.9998 20.5517L23.1962 17.7106Z" fill="white"/></svg>