<svg width="40" height="40" viewBox="0 0 40 40" fill="none" xmlns="http://www.w3.org/2000/svg"><rect width="40" height="40" rx="20" fill="white" fill-opacity="0.2"/><path fill-rule="evenodd" clip-rule="evenodd" d="M9.25 20C9.25 14.0629 14.0629 9.25 20 9.25C25.9371 9.25 30.75 14.0629 30.75 20C30.75 25.9371 25.9371 30.75 20 30.75C14.0629 30.75 9.25 25.9371 9.25 20ZM15.5496 22.4003C15.8808 22.1515 16.351 22.2184 16.5997 22.5496C17.3763 23.5835 18.6103 24.25 20 24.25C21.3898 24.25 22.6238 23.5835 23.4003 22.5496C23.6491 22.2184 24.1192 22.1515 24.4505 22.4003C24.7817 22.649 24.8485 23.1192 24.5997 23.4504C23.5521 24.8453 21.8816 25.75 20 25.75C18.1185 25.75 16.448 24.8453 15.4004 23.4504C15.1516 23.1192 15.2184 22.649 15.5496 22.4003ZM16 15.75C15.3096 15.75 14.75 16.3096 14.75 17C14.75 17.6904 15.3096 18.25 16 18.25H16.009C16.6993 18.25 17.259 17.6904 17.259 17C17.259 16.3096 16.6993 15.75 16.009 15.75H16ZM23.991 15.75C23.3007 15.75 22.741 16.3096 22.741 17C22.741 17.6904 23.3007 18.25 23.991 18.25H24C24.6904 18.25 25.25 17.6904 25.25 17C25.25 16.3096 24.6904 15.75 24 15.75H23.991Z" fill="white"/></svg>