<svg width="40" height="40" viewBox="0 0 40 40" fill="none" xmlns="http://www.w3.org/2000/svg"><rect width="40" height="40" rx="20" fill="white" fill-opacity="0.2"/><path fill-rule="evenodd" clip-rule="evenodd" d="M9.25 20C9.25 14.0629 14.0629 9.25 20 9.25C25.9371 9.25 30.75 14.0629 30.75 20C30.75 25.9371 25.9371 30.75 20 30.75C14.0629 30.75 9.25 25.9371 9.25 20ZM14.4697 15.4697C14.7626 15.1768 15.2374 15.1768 15.5303 15.4697L16.5 16.4393L17.4697 15.4697C17.7626 15.1768 18.2374 15.1768 18.5303 15.4697C18.8232 15.7626 18.8232 16.2374 18.5303 16.5303L17.5607 17.5L18.5303 18.4697C18.8232 18.7626 18.8232 19.2374 18.5303 19.5303C18.2374 19.8232 17.7626 19.8232 17.4697 19.5303L16.5 18.5607L15.5303 19.5303C15.2374 19.8232 14.7626 19.8232 14.4697 19.5303C14.1768 19.2374 14.1768 18.7626 14.4697 18.4697L15.4393 17.5L14.4697 16.5303C14.1768 16.2374 14.1768 15.7626 14.4697 15.4697ZM21.4697 15.4697C21.7626 15.1768 22.2374 15.1768 22.5303 15.4697L23.5 16.4393L24.4697 15.4697C24.7626 15.1768 25.2374 15.1768 25.5303 15.4697C25.8232 15.7626 25.8232 16.2374 25.5303 16.5303L24.5607 17.5L25.5303 18.4697C25.8232 18.7626 25.8232 19.2374 25.5303 19.5303C25.2374 19.8232 24.7626 19.8232 24.4697 19.5303L23.5 18.5607L22.5303 19.5303C22.2374 19.8232 21.7626 19.8232 21.4697 19.5303C21.1768 19.2374 21.1768 18.7626 21.4697 18.4697L22.4393 17.5L21.4697 16.5303C21.1768 16.2374 21.1768 15.7626 21.4697 15.4697ZM16.5997 22.5496C16.351 22.2184 15.8808 22.1515 15.5496 22.4003C15.2184 22.649 15.1516 23.1192 15.4004 23.4504C16.448 24.8453 18.1185 25.75 20 25.75C21.8816 25.75 23.5521 24.8453 24.5997 23.4504C24.8485 23.1192 24.7817 22.649 24.4505 22.4003C24.1192 22.1515 23.6491 22.2184 23.4003 22.5496C22.6238 23.5835 21.3898 24.25 20 24.25C18.6103 24.25 17.3763 23.5835 16.5997 22.5496Z" fill="white"/></svg>