<svg width="20" height="20" viewBox="0 0 20 20" fill="none" xmlns="http://www.w3.org/2000/svg"><path fill-rule="evenodd" clip-rule="evenodd" d="M3.08909 1.91058C2.76365 1.58515 2.23602 1.58515 1.91058 1.91058C1.58514 2.23602 1.58514 2.76365 1.91058 3.0891L4.46449 5.643C4.45871 5.6476 4.45293 5.65219 4.44715 5.65679C2.93534 6.86091 1.77192 8.39142 1.10749 9.72034C1.01951 9.89625 1.01951 10.1034 1.10749 10.2793C1.77192 11.6083 2.93534 13.1388 4.44715 14.3429C5.96021 15.548 7.8643 16.4582 9.99984 16.4582C11.5113 16.4582 12.9069 16.0023 14.1299 15.3084L16.9106 18.0891C17.236 18.4145 17.7637 18.4145 18.0891 18.0891C18.4145 17.7637 18.4145 17.236 18.0891 16.9106L3.08909 1.91058ZM11.5128 12.6914L7.30829 8.48684C7.03324 8.9465 6.87484 9.48459 6.87484 10.0591C6.87484 11.7523 8.24743 13.1248 9.94059 13.1248C10.5151 13.1248 11.0532 12.9664 11.5128 12.6914ZM16.4751 13.5288C17.5401 12.4919 18.3702 11.3234 18.8922 10.2793C18.9802 10.1034 18.9802 9.89625 18.8922 9.72034C18.2278 8.39142 17.0643 6.86091 15.5525 5.65679C14.0395 4.45167 12.1353 3.5415 9.99984 3.5415C8.96017 3.5415 7.97541 3.75721 7.06389 4.11765L16.4751 13.5288Z" fill="white"/></svg>