<svg width="48" height="48" viewBox="0 0 48 48" fill="none" xmlns="http://www.w3.org/2000/svg"><foreignObject x="-10" y="-10" width="68" height="68"><div xmlns="http://www.w3.org/1999/xhtml" style="backdrop-filter:blur(5px);clip-path:url(#bgblur_0_2089_485_clip_path);height:100%;width:100%"></div></foreignObject><g filter="url(#filter0_i_2089_485)" data-figma-bg-blur-radius="10"><path d="M0 17C0 7.61116 7.61116 0 17 0H31C40.3888 0 48 7.61116 48 17V31C48 40.3888 40.3888 48 31 48H17C7.61116 48 0 40.3888 0 31V17Z" fill="white" fill-opacity="0.15"/><path d="M17 0.5H31C40.1127 0.500001 47.5 7.8873 47.5 17V31C47.5 40.1127 40.1127 47.5 31 47.5H17C7.8873 47.5 0.5 40.1127 0.5 31V17C0.500001 7.8873 7.8873 0.5 17 0.5Z" stroke="white" stroke-opacity="0.1"/><path d="M29 14C29.5523 14 30 14.4477 30 15V18H33C33.5523 18 34 18.4477 34 19C34 19.5523 33.5523 20 33 20H30V28H33C33.5523 28 34 28.4477 34 29C34 29.5523 33.5523 30 33 30H30V33C30 33.5523 29.5523 34 29 34C28.4477 34 28 33.5523 28 33V30H20V33C20 33.5523 19.5523 34 19 34C18.4477 34 18 33.5523 18 33V30H15C14.4477 30 14 29.5523 14 29C14 28.4477 14.4477 28 15 28H18V20H15C14.4477 20 14 19.5523 14 19C14 18.4477 14.4477 18 15 18H18V15C18 14.4477 18.4477 14 19 14C19.5523 14 20 14.4477 20 15V18H28V15C28 14.4477 28.4477 14 29 14ZM20 28H28V20H20V28Z" fill="white"/></g><defs><filter id="filter0_i_2089_485" x="-10" y="-10" width="68" height="68" filterUnits="userSpaceOnUse" color-interpolation-filters="sRGB"><feFlood flood-opacity="0" result="BackgroundImageFix"/><feBlend mode="normal" in="SourceGraphic" in2="BackgroundImageFix" result="shape"/><feColorMatrix in="SourceAlpha" type="matrix" values="0 0 0 0 0 0 0 0 0 0 0 0 0 0 0 0 0 0 127 0" result="hardAlpha"/><feOffset/><feGaussianBlur stdDeviation="2.75"/><feComposite in2="hardAlpha" operator="arithmetic" k2="-1" k3="1"/><feColorMatrix type="matrix" values="0 0 0 0 1 0 0 0 0 1 0 0 0 0 1 0 0 0 0.25 0"/><feBlend mode="normal" in2="shape" result="effect1_innerShadow_2089_485"/></filter><clipPath id="bgblur_0_2089_485_clip_path" transform="translate(10 10)"><path d="M0 17C0 7.61116 7.61116 0 17 0H31C40.3888 0 48 7.61116 48 17V31C48 40.3888 40.3888 48 31 48H17C7.61116 48 0 40.3888 0 31V17Z"/></clipPath></defs></svg>