<svg width="24" height="24" viewBox="0 0 24 24" fill="none" xmlns="http://www.w3.org/2000/svg"><path fill-rule="evenodd" clip-rule="evenodd" d="M10.5163 2.04299C10.6958 2.27652 10.722 2.59348 10.5832 2.85329C9.99927 3.94693 9.66792 5.1961 9.66792 6.52488C9.66792 10.8367 13.1633 14.3321 17.4751 14.3321C18.8039 14.3321 20.0531 14.0007 21.1467 13.4168C21.4065 13.278 21.7235 13.3042 21.957 13.4837C22.1906 13.6632 22.2974 13.9627 22.2302 14.2495C21.1556 18.8349 17.0409 22.25 12.1269 22.25C6.39589 22.25 1.75 17.6041 1.75 11.8731C1.75 6.95909 5.16505 2.84448 9.7505 1.76982C10.0373 1.70261 10.3368 1.80947 10.5163 2.04299Z" fill="white"/></svg>