<svg width="48" height="48" viewBox="0 0 48 48" fill="none" xmlns="http://www.w3.org/2000/svg"><foreignObject x="-10" y="-10" width="68" height="68"><div xmlns="http://www.w3.org/1999/xhtml" style="backdrop-filter:blur(5px);clip-path:url(#bgblur_0_2089_491_clip_path);height:100%;width:100%"></div></foreignObject><g filter="url(#filter0_i_2089_491)" data-figma-bg-blur-radius="10"><rect width="48" height="48" rx="17" fill="white" fill-opacity="0.15"/><rect x="0.5" y="0.5" width="47" height="47" rx="16.5" stroke="white" stroke-opacity="0.1"/><path fill-rule="evenodd" clip-rule="evenodd" d="M32.1733 19.1799C32.6263 18.8639 33.2496 18.975 33.5656 19.428C34.4697 20.7242 35.0001 22.3017 35.0001 24.0001C35.0001 28.4184 31.4184 32.0001 27.0001 32.0001H20.2621L21.1402 32.7319C21.5645 33.0855 21.6218 33.716 21.2683 34.1403C20.9147 34.5646 20.2841 34.6219 19.8599 34.2683L16.8599 31.7683C16.5364 31.4988 16.4165 31.0556 16.5598 30.6597C16.7031 30.2638 17.079 30.0001 17.5001 30.0001H27.0001C30.3138 30.0001 33.0001 27.3138 33.0001 24.0001C33.0001 22.724 32.6028 21.5436 31.9252 20.5722C31.6093 20.1192 31.7203 19.4959 32.1733 19.1799Z" fill="white"/><path fill-rule="evenodd" clip-rule="evenodd" d="M15.8268 28.8202C15.3738 29.1362 14.7505 29.0251 14.4345 28.5721C13.5304 27.2759 13 25.6984 13 24C13 19.5818 16.5817 16 21 16H27.738L26.8598 15.2682C26.4355 14.9147 26.3782 14.2841 26.7318 13.8598C27.0854 13.4356 27.7159 13.3782 28.1402 13.7318L31.1402 16.2318C31.4636 16.5013 31.5836 16.9446 31.4403 17.3405C31.297 17.7363 30.921 18 30.5 18H21C17.6863 18 15 20.6863 15 24C15 25.2761 15.3973 26.4564 16.0749 27.4279C16.3908 27.8809 16.2798 28.5042 15.8268 28.8202Z" fill="white"/></g><defs><filter id="filter0_i_2089_491" x="-10" y="-10" width="68" height="68" filterUnits="userSpaceOnUse" color-interpolation-filters="sRGB"><feFlood flood-opacity="0" result="BackgroundImageFix"/><feBlend mode="normal" in="SourceGraphic" in2="BackgroundImageFix" result="shape"/><feColorMatrix in="SourceAlpha" type="matrix" values="0 0 0 0 0 0 0 0 0 0 0 0 0 0 0 0 0 0 127 0" result="hardAlpha"/><feOffset/><feGaussianBlur stdDeviation="2.75"/><feComposite in2="hardAlpha" operator="arithmetic" k2="-1" k3="1"/><feColorMatrix type="matrix" values="0 0 0 0 1 0 0 0 0 1 0 0 0 0 1 0 0 0 0.25 0"/><feBlend mode="normal" in2="shape" result="effect1_innerShadow_2089_491"/></filter><clipPath id="bgblur_0_2089_491_clip_path" transform="translate(10 10)"><rect width="48" height="48" rx="17"/></clipPath></defs></svg>