<svg width="20" height="20" viewBox="0 0 20 20" fill="none" xmlns="http://www.w3.org/2000/svg"><path fill-rule="evenodd" clip-rule="evenodd" d="M18.5415 16.2501C18.5415 17.5157 17.5155 18.5417 16.2498 18.5417L3.74984 18.5417C2.48417 18.5417 1.45817 17.5157 1.45817 16.2501L1.45817 3.75008C1.45817 2.48441 2.48417 1.45841 3.74984 1.45841L16.2498 1.45841C17.5155 1.45841 18.5415 2.48441 18.5415 3.75008L18.5415 16.2501ZM13.1962 7.71058C13.5402 7.40483 14.0669 7.43583 14.3727 7.77975C14.6784 8.12375 14.6474 8.6505 14.3035 8.95625L10.5534 12.2896C10.2377 12.5702 9.76192 12.5702 9.44617 12.2896L5.69617 8.95625C5.35217 8.6505 5.32125 8.12375 5.627 7.77975C5.93275 7.43583 6.4595 7.40483 6.8035 7.71058L9.99984 10.5517L13.1962 7.71058Z" fill="#56FF61"/></svg>