<svg width="48" height="48" viewBox="0 0 48 48" fill="none" xmlns="http://www.w3.org/2000/svg"><foreignObject x="-10" y="-10" width="68" height="68"><div xmlns="http://www.w3.org/1999/xhtml" style="backdrop-filter:blur(5px);clip-path:url(#bgblur_0_2089_495_clip_path);height:100%;width:100%"></div></foreignObject><g filter="url(#filter0_i_2089_495)" data-figma-bg-blur-radius="10"><rect width="48" height="48" rx="17" fill="white" fill-opacity="0.15"/><rect x="0.5" y="0.5" width="47" height="47" rx="16.5" stroke="white" stroke-opacity="0.1"/><path d="M31.9375 18.1524C32.1297 18.6702 31.8657 19.2457 31.3479 19.4378C30.289 19.8307 29.1274 20.6484 27.9514 21.7289C26.7866 22.799 25.6641 24.074 24.6793 25.3107C23.6965 26.5449 22.8631 27.7254 22.2751 28.5981C21.9814 29.0339 21.7498 29.3917 21.5924 29.6394C21.5137 29.7632 21.4535 29.8594 21.4134 29.924L21.3686 29.9966L21.3579 30.0142L21.3554 30.0182C21.1718 30.3209 20.8411 30.5048 20.487 30.5002C20.1328 30.4956 19.8075 30.304 19.6318 29.9964C18.6825 28.3352 17.8984 27.5873 17.4265 27.257C17.1921 27.0929 17.0326 27.0302 16.9624 27.0079C16.9459 27.0026 16.9337 26.9994 16.9261 26.9976C16.4083 26.9597 16 26.5277 16 26.0003C16 25.448 16.4477 25.0003 17 25.0003C17.118 25.0082 17.397 25.0397 17.5688 25.102C17.8424 25.1891 18.1829 25.3452 18.5735 25.6185C19.1333 26.0104 19.7901 26.6389 20.5059 27.6453C20.5418 27.5916 20.5786 27.5367 20.6165 27.4805C21.2251 26.5772 22.0902 25.3515 23.1148 24.0648C24.1374 22.7807 25.3311 21.4203 26.5983 20.2561C27.8543 19.1021 29.2404 18.0865 30.6521 17.5627C31.1699 17.3706 31.7454 17.6346 31.9375 18.1524Z" fill="white"/></g><defs><filter id="filter0_i_2089_495" x="-10" y="-10" width="68" height="68" filterUnits="userSpaceOnUse" color-interpolation-filters="sRGB"><feFlood flood-opacity="0" result="BackgroundImageFix"/><feBlend mode="normal" in="SourceGraphic" in2="BackgroundImageFix" result="shape"/><feColorMatrix in="SourceAlpha" type="matrix" values="0 0 0 0 0 0 0 0 0 0 0 0 0 0 0 0 0 0 127 0" result="hardAlpha"/><feOffset/><feGaussianBlur stdDeviation="2.75"/><feComposite in2="hardAlpha" operator="arithmetic" k2="-1" k3="1"/><feColorMatrix type="matrix" values="0 0 0 0 1 0 0 0 0 1 0 0 0 0 1 0 0 0 0.25 0"/><feBlend mode="normal" in2="shape" result="effect1_innerShadow_2089_495"/></filter><clipPath id="bgblur_0_2089_495_clip_path" transform="translate(10 10)"><rect width="48" height="48" rx="17"/></clipPath></defs></svg>