<svg width="16" height="16" viewBox="0 0 16 16" fill="none" xmlns="http://www.w3.org/2000/svg">
<g clip-path="url(#clip0_439_18795)">
<path d="M4.79357 8.13973C4.79354 8.12245 4.77467 8.10516 4.77151 8.0881C4.77082 8.08441 4.77017 8.08079 4.76936 8.07716C4.76598 8.06223 4.76186 8.04738 4.75611 8.03295L4.75401 8.0277C4.75401 8.0277 4.77086 8.02754 4.77082 8.02748L4.2282 6.62879V4.35526C4.2282 2.53773 3.06411 0.243852 3.01517 0.147164C2.9162 -0.0490547 2.6027 -0.0490547 2.50373 0.147164C2.45482 0.243852 1.31604 2.53773 1.31604 4.35526V6.62882L0.733606 8.02757L0.726043 8.03298C0.720262 8.04741 0.713418 8.06226 0.710043 8.0772C0.709231 8.08082 0.707199 8.08444 0.706512 8.08813C0.703356 8.10526 0.717574 8.12248 0.717543 8.13976C0.717543 8.1402 0.733606 8.1406 0.733606 8.14104V14.839C0.733606 14.9999 0.806418 15.1302 1.02482 15.1302V15.7126C1.02482 15.8736 1.12145 16 1.28226 16H4.19442C4.35523 16 4.51942 15.8736 4.51942 15.7126V15.1302C4.66501 15.1302 4.81064 14.9999 4.81064 14.839V8.14101C4.81057 8.14057 4.79357 8.14016 4.79357 8.13973ZM1.89845 4.35523C1.89845 3.19235 2.43751 1.75704 2.77223 0.97782C3.10695 1.75648 3.64573 3.19095 3.64573 4.35523V4.6426H1.89845V4.35523ZM1.89845 5.22501H3.64573V6.38985H1.89845V5.22501ZM1.77067 6.97229H3.70592L4.05545 7.84594H1.42117L1.77067 6.97229ZM3.93695 15.4175H1.60723V15.1263H3.93695V15.4175ZM4.22817 14.5439H1.31601V8.42838H4.22817V14.5439Z" fill="#FFA048"/>
<path d="M10.0354 8.13973C10.0354 8.12245 10.0165 8.10516 10.0134 8.0881C10.0127 8.08441 10.012 8.08079 10.0112 8.07716C10.0078 8.06223 10.0037 8.04738 9.99795 8.03295L9.99586 8.0277C9.99586 8.0277 10.0127 8.02754 10.0127 8.02748L9.47004 6.62879V4.35526C9.47004 2.53773 8.30595 0.243852 8.25701 0.147164C8.15804 -0.0490547 7.84454 -0.0490547 7.74557 0.147164C7.69667 0.243852 6.55789 2.53773 6.55789 4.35526V6.62882L5.97545 8.02757L5.96789 8.03298C5.96214 8.04741 5.95526 8.06226 5.95192 8.0772C5.95111 8.08082 5.94904 8.08444 5.94836 8.08813C5.9452 8.10526 5.95945 8.12248 5.95939 8.13976C5.95939 8.1402 5.97545 8.1406 5.97545 8.14104V14.839C5.97545 14.9999 6.04826 15.1302 6.26667 15.1302V15.7126C6.26667 15.8736 6.36329 16 6.52411 16H9.43626C9.59707 16 9.76126 15.8736 9.76126 15.7126V15.1302C9.90686 15.1302 10.0525 14.9999 10.0525 14.839V8.14101C10.0524 8.14057 10.0354 8.14016 10.0354 8.13973ZM7.14029 4.35523C7.14029 3.19235 7.67936 1.75704 8.01407 0.97782C8.34879 1.75648 8.88757 3.19095 8.88757 4.35523V4.6426H7.14029V4.35523ZM7.14029 5.22501H8.88757V6.38985H7.14029V5.22501ZM7.01254 6.97229H8.94779L9.29732 7.84594H6.66304L7.01254 6.97229ZM9.17879 15.4175H6.84907V15.1263H9.17879V15.4175ZM9.47001 14.5439H6.55786V8.42838H9.47001V14.5439Z" fill="#FFA048"/>
<path d="M15.2773 8.13973C15.2772 8.12245 15.2584 8.10516 15.2552 8.0881C15.2545 8.08441 15.2539 8.08079 15.253 8.07716C15.2497 8.06223 15.2455 8.04738 15.2398 8.03295L15.2377 8.0277C15.2377 8.0277 15.2545 8.02754 15.2545 8.02748L14.7119 6.62879V4.35526C14.7119 2.53773 13.5478 0.243852 13.4989 0.147164C13.3999 -0.0490547 13.0864 -0.0490547 12.9874 0.147164C12.9385 0.243852 11.7997 2.53773 11.7997 4.35526V6.62882L11.2173 8.02757L11.2097 8.03298C11.204 8.04741 11.1971 8.06226 11.1938 8.0772C11.1929 8.08082 11.1909 8.08444 11.1902 8.08813C11.187 8.10526 11.2013 8.12248 11.2012 8.13976C11.2012 8.1402 11.2173 8.1406 11.2173 8.14104V14.839C11.2173 14.9999 11.2901 15.1302 11.5085 15.1302V15.7126C11.5085 15.8736 11.6051 16 11.7659 16H14.6781C14.8389 16 15.0031 15.8736 15.0031 15.7126V15.1302C15.1487 15.1302 15.2943 14.9999 15.2943 14.839V8.14101C15.2943 8.14057 15.2773 8.14016 15.2773 8.13973ZM12.3822 4.35523C12.3822 3.19235 12.9212 1.75704 13.2559 0.97782C13.5907 1.75648 14.1294 3.19095 14.1294 4.35523V4.6426H12.3822V4.35523ZM12.3822 5.22501H14.1294V6.38985H12.3822V5.22501ZM12.2544 6.97229H14.1896L14.5392 7.84594H11.9049L12.2544 6.97229ZM14.4207 15.4175H12.0909V15.1263H14.4207V15.4175ZM14.7119 14.5439H11.7997V8.42838H14.7119V14.5439Z" fill="#FFA048"/>
<path d="M4.22817 14.5439H1.31601V8.42838H4.22817V14.5439Z" fill="#FFA048"/>
<path d="M9.47001 14.5439H6.55786V8.42838H9.47001V14.5439Z" fill="#FFA048"/>
<path d="M7.01254 6.97229H8.94779L9.29732 7.84594H6.66304L7.01254 6.97229Z" fill="#FFA048"/>
<path d="M1.77067 6.97229H3.70592L4.05545 7.84594H1.42117L1.77067 6.97229Z" fill="#FFA048"/>
<path d="M12.2544 6.97229H14.1896L14.5392 7.84594H11.9049L12.2544 6.97229Z" fill="#FFA048"/>
<path d="M14.7119 14.5439H11.7997V8.42838H14.7119V14.5439Z" fill="#FFA048"/>
<path d="M12.3822 4.35523C12.3822 3.19235 12.9212 1.75704 13.2559 0.97782C13.5907 1.75648 14.1294 3.19095 14.1294 4.35523V4.6426H12.3822V4.35523Z" fill="#FFA048"/>
<path d="M7.14029 4.35523C7.14029 3.19235 7.67936 1.75704 8.01407 0.97782C8.34879 1.75648 8.88757 3.19095 8.88757 4.35523V4.6426H7.14029V4.35523Z" fill="#FFA048"/>
<path d="M1.89845 4.35523C1.89845 3.19235 2.43751 1.75704 2.77223 0.97782C3.10695 1.75648 3.64573 3.19095 3.64573 4.35523V4.6426H1.89845V4.35523Z" fill="#FFA048"/>
</g>
<defs>
<clipPath id="clip0_439_18795">
<rect width="16" height="16" fill="white"/>
</clipPath>
</defs>
</svg>
