<svg xmlns="http://www.w3.org/2000/svg" width="20" height="20" viewBox="0 0 20 20" fill="none">
  <g clip-path="url(#clip0_113_3635)">
    <path d="M9.99744 0.833008C10.4576 0.833008 10.8308 1.2061 10.8308 1.66634V2.49967H11.7189C12.4577 2.49963 13.0942 2.4996 13.6039 2.56812C14.1502 2.64157 14.6738 2.80719 15.0985 3.2319C15.5232 3.65663 15.6889 4.18025 15.7623 4.72651C15.8308 5.23623 15.8308 5.87275 15.8308 6.61148V7.49967C15.8308 7.95991 15.4576 8.333 14.9974 8.333C14.5372 8.333 14.1641 7.95991 14.1641 7.49967V6.66634C14.1641 5.85711 14.1623 5.33401 14.1104 4.9486C14.0619 4.58715 13.9834 4.47385 13.92 4.41042C13.8565 4.34698 13.7433 4.26853 13.3818 4.21993C12.9964 4.16811 12.4733 4.16634 11.6641 4.16634H8.33077C7.5215 4.16634 6.99841 4.16811 6.61298 4.21993C6.25154 4.26853 6.13825 4.34698 6.07481 4.41042C6.01137 4.47385 5.93291 4.58715 5.88432 4.9486C5.8325 5.33401 5.83073 5.85711 5.83073 6.66634V7.49967C5.83073 7.95991 5.45764 8.333 4.9974 8.333C4.53716 8.333 4.16406 7.95991 4.16406 7.49967V6.66634V6.61148C4.16402 5.87275 4.16399 5.23623 4.23251 4.72651C4.30596 4.18025 4.47158 3.65663 4.8963 3.2319C5.32101 2.80719 5.84464 2.64157 6.39091 2.56812C6.90062 2.4996 7.53713 2.49963 8.27587 2.49967H8.33077H9.16411V1.66634C9.16411 1.2061 9.53719 0.833008 9.99744 0.833008Z" fill="white"/>
    <path fill-rule="evenodd" clip-rule="evenodd" d="M7.88098 17.2327C8.43714 16.4388 9.19831 15.8637 10.1164 15.8637C10.9649 15.8637 11.6792 16.3549 12.2217 17.0559C12.4745 17.2799 12.5837 17.6219 12.8805 17.2028C13.4297 16.4088 14.1871 15.833 15.1042 15.833C15.8905 15.833 16.5621 16.2563 17.0881 16.8773C17.2318 17.0557 17.4731 17.6756 17.7441 17.4022C18.068 17.0753 18.5956 17.0728 18.9226 17.3968C19.2495 17.7207 19.2519 18.2483 18.928 18.5753C18.5257 18.9813 17.9774 19.2453 17.3571 19.1455C16.7927 19.0548 16.35 18.6903 16.0293 18.249C15.7789 17.9573 15.5483 17.4997 15.1042 17.4997C14.9471 17.4997 14.633 17.5978 14.2493 18.1536L14.2446 18.1604C13.8711 18.6899 13.3196 19.1356 12.6112 19.1356C11.9567 19.1356 11.3537 18.7127 10.9869 18.189C10.596 17.6311 10.2776 17.5303 10.1164 17.5303C9.95539 17.5303 9.63781 17.6308 9.24773 18.1866C8.87764 18.7228 8.32506 19.1663 7.61643 19.1663C6.93555 19.1663 6.39872 18.7568 6.02948 18.2492C5.77891 17.9575 5.54842 17.4997 5.10424 17.4997C4.94703 17.4997 4.63293 17.5978 4.2493 18.1536C3.87448 18.6965 3.29521 19.1356 2.6112 19.1356C1.89968 19.1356 1.35038 18.6864 0.982935 18.1527C0.721967 17.7736 0.817725 17.2548 1.19682 16.9938C1.57591 16.7328 2.09479 16.8285 2.35576 17.2076C2.5644 17.5107 2.66863 17.5019 2.88041 17.2028C3.42971 16.4088 4.18705 15.833 5.10424 15.833C5.89047 15.833 6.56213 16.2563 7.08809 16.8773C7.35118 17.2038 7.53518 17.735 7.88098 17.2327Z" fill="white"/>
    <path fill-rule="evenodd" clip-rule="evenodd" d="M8.03159 5.79937C8.82781 5.45388 9.39448 5.20801 10.0026 5.20801C10.6108 5.20801 11.1775 5.45388 11.9736 5.79937L14.5061 6.89655C15.1603 7.17992 15.7075 7.41694 16.1198 7.66439C16.5564 7.9264 16.9156 8.2419 17.1197 8.71785C17.1539 8.79735 17.1836 8.87885 17.209 8.96168C17.3591 9.45302 17.295 9.93135 17.1421 10.426C17.0614 10.687 16.9484 10.9753 16.812 11.2954H14.5691C14.2239 11.2954 13.9441 11.5753 13.9441 11.9204C13.9441 12.2656 14.2239 12.5454 14.5691 12.5454H16.272L15.5374 14.3302C15.502 14.4162 15.4843 14.4592 15.4637 14.4858C15.4233 14.5382 15.3957 14.5567 15.3318 14.5742C15.2995 14.583 15.2344 14.583 15.1043 14.583C14.2545 14.583 13.5349 14.888 12.9488 15.3301C12.7696 15.4652 12.6801 15.5328 12.5973 15.5333C12.5145 15.5339 12.424 15.4675 12.243 15.3347C11.6612 14.9078 10.9497 14.6137 10.1165 14.6137C9.28231 14.6137 8.57248 14.9071 7.99032 15.3353C7.81004 15.4678 7.71991 15.5341 7.63745 15.5339C7.55499 15.5336 7.46511 15.4667 7.28534 15.3328C6.6928 14.8913 5.95472 14.583 5.10433 14.583C4.81084 14.583 4.66409 14.583 4.60133 14.5414L4.5992 14.54C4.53686 14.4978 4.49827 14.404 4.42108 14.2164L3.7333 12.5454H5.43622C5.7814 12.5454 6.06122 12.2656 6.06122 11.9204C6.06122 11.5753 5.7814 11.2954 5.43622 11.2954H3.1933C3.05689 10.9753 2.94384 10.687 2.86318 10.426C2.71028 9.93135 2.64616 9.45302 2.79629 8.96168C2.82162 8.87885 2.8514 8.79735 2.88553 8.71785C3.0896 8.2419 3.44889 7.9264 3.88545 7.66439C4.29776 7.41694 4.84492 7.17992 5.4991 6.89654L8.03159 5.79937Z" fill="white"/>
  </g>
  <defs>
    <clipPath id="clip0_113_3635">
      <rect width="20" height="20" fill="white"/>
    </clipPath>
  </defs>
</svg>