<svg width="18" height="18" viewBox="0 0 18 18" fill="none" xmlns="http://www.w3.org/2000/svg">
<path fill-rule="evenodd" clip-rule="evenodd" d="M6.59502 0.00263941C6.69112 -0.00322726 6.79153 0.000722739 6.88686 0.0141227C7.18612 0.0561811 7.43845 0.209239 7.67095 0.350264L7.72712 0.384256L7.95328 0.520748C8.23378 0.690198 8.5197 0.862931 8.79962 1.02627C9.1047 0.851189 9.49778 0.620781 9.85195 0.408848L9.91445 0.371298C10.1558 0.225964 10.4113 0.0720645 10.6911 0.0264478C10.8122 0.00673112 10.9289 0.00231446 11.051 0.0128478C11.3335 0.0371895 11.5976 0.170223 11.8464 0.295498L11.9104 0.327631L11.9776 0.361039C12.2826 0.512173 12.6237 0.681164 12.8443 1.03704C12.9286 1.17322 13.0053 1.36867 13.036 1.52591C13.1158 1.93464 12.9989 2.24317 12.8952 2.51681L12.8776 2.56345C12.5486 3.43845 11.9903 4.29744 11.3197 4.99756C10.6527 5.69401 9.83778 6.27128 8.97512 6.52736C8.85912 6.56181 8.73553 6.56181 8.61945 6.52736C7.76153 6.27267 6.95084 5.70031 6.28607 5.00925C5.61779 4.31455 5.06019 3.46218 4.72808 2.59272L4.70857 2.54194C4.59562 2.24861 4.46762 1.91623 4.56686 1.48142C4.59567 1.35512 4.65742 1.19646 4.72156 1.08391C4.94349 0.694414 5.30936 0.513248 5.6353 0.351856L5.70717 0.316156L5.76977 0.284698C6.02178 0.157748 6.29313 0.0210644 6.59502 0.00263941ZM6.71289 1.25196C6.7004 1.2502 6.68378 1.24955 6.6712 1.25031C6.66591 1.25116 6.64637 1.25553 6.60123 1.27392C6.5279 1.30381 6.43341 1.35058 6.26618 1.43419C6.0538 1.54038 5.94605 1.59554 5.87145 1.64556C5.82366 1.67761 5.81381 1.69178 5.80932 1.6997C5.80632 1.70622 5.79971 1.72097 5.79586 1.73086C5.79201 1.74076 5.78715 1.75526 5.78495 1.7621C5.78495 1.7621 5.78066 1.78959 5.78066 1.79343C5.78067 1.79768 5.781 1.80753 5.78563 1.82881C5.79839 1.88736 5.826 1.96396 5.8958 2.14669C6.16275 2.84558 6.62413 3.55762 7.18695 4.14266C7.69662 4.67254 8.25995 5.06793 8.79728 5.26926C9.33795 5.06666 9.90495 4.66757 10.417 4.13295C10.982 3.54301 11.4435 2.82568 11.7075 2.12355C11.7713 1.95401 11.7962 1.88391 11.808 1.83021C11.814 1.80351 11.8123 1.78612 11.8077 1.76138C11.8077 1.76138 11.8013 1.74205 11.7965 1.72998C11.7919 1.71791 11.7798 1.69231 11.7798 1.69231C11.7753 1.68516 11.7649 1.67181 11.7205 1.64261C11.6504 1.59629 11.5498 1.54488 11.3514 1.44566C11.1855 1.36274 11.0889 1.31483 11.0143 1.2837C10.9684 1.26455 10.9407 1.25784 10.9407 1.25784C10.9228 1.25636 10.9132 1.2567 10.8955 1.2595C10.8955 1.2595 10.8679 1.26854 10.8226 1.2916C10.7493 1.32898 10.6549 1.38509 10.4938 1.48147C9.99803 1.77811 9.4202 2.11463 9.10103 2.29212C8.91078 2.39789 8.67928 2.39709 8.48978 2.29001C8.09812 2.06866 7.68578 1.81959 7.30245 1.58801L7.08199 1.45491C6.92842 1.36236 6.84373 1.31186 6.77733 1.27875C6.74802 1.26412 6.71289 1.25196 6.71289 1.25196ZM14.4514 7.97073C14.6111 8.08206 14.8114 8.15048 14.938 8.19315C15.2424 8.29582 15.5917 8.3529 15.9583 8.20898C16.3248 8.06507 16.5419 7.78548 16.6951 7.50323C16.8352 7.24523 16.962 6.90675 17.1017 6.53417L17.3141 5.96772C17.4062 5.72234 17.494 5.48831 17.5438 5.28171C17.6001 5.04778 17.6229 4.79361 17.5406 4.51854C17.4604 4.25039 17.311 4.05401 17.1389 3.89026C16.99 3.74866 16.7979 3.60831 16.6015 3.46486C15.9425 2.9835 15.1285 2.46409 14.2844 2.08658C14.2541 2.19102 14.2192 2.29173 14.1856 2.38878L14.1588 2.46656C13.7533 3.65226 13.0151 4.83161 12.1153 5.79449C11.9295 5.99332 11.7351 6.18475 11.5334 6.36632C11.7744 6.46392 12.0204 6.5986 12.2997 6.75138L13.3234 7.3104C13.7743 7.55656 14.1562 7.76506 14.4514 7.97073ZM5.47889 5.79449C5.67853 6.00812 5.88811 6.2132 6.10597 6.40669C5.89648 6.49606 5.67974 6.61017 5.43891 6.73696L4.33107 7.3189C3.86862 7.56182 3.47712 7.7674 3.17442 7.97165C3.02202 8.07448 2.86563 8.12515 2.72837 8.16956C2.70387 8.17748 2.67954 8.1854 2.6564 8.19315C2.35198 8.29582 2.00269 8.3529 1.63617 8.20898C1.26965 8.06507 1.05256 7.78548 0.8993 7.50315C0.759241 7.24523 0.632374 6.90677 0.492691 6.53416L0.280274 5.96772C0.188216 5.72234 0.100416 5.4883 0.0506661 5.28171C-0.00566724 5.04778 -0.028459 4.79361 0.0537827 4.51854C0.133958 4.25039 0.283366 4.05401 0.455491 3.89026C0.604349 3.74866 0.796549 3.6083 0.992974 3.46486C1.6524 2.98309 2.46642 2.4639 3.30988 2.08666C3.3401 2.19107 3.37499 2.29176 3.40862 2.38879L3.43545 2.46656C3.84092 3.65226 4.5791 4.83161 5.47889 5.79449ZM13.91 11.8216L14.1637 9.53865C14.1482 9.46515 14.1268 9.40931 14.1015 9.36056C14.0475 9.25723 13.9569 9.14965 13.7369 8.9964C13.5043 8.83431 13.1829 8.6579 12.6955 8.39181L11.7855 7.8949C11.1674 7.5574 11.0001 7.47782 10.8295 7.45707C10.6588 7.4364 10.4774 7.47365 9.79637 7.6534L8.97495 7.88082C8.86403 7.91373 8.74628 7.91523 8.63478 7.88523L7.95062 7.68681C7.26528 7.48706 7.08251 7.44481 6.90927 7.46215C6.73603 7.47956 6.5653 7.55731 5.93332 7.88931L4.94177 8.41006C4.44199 8.67265 4.11237 8.84673 3.8736 9.00782C3.64769 9.16032 3.55457 9.26831 3.49913 9.37265C3.47209 9.42356 3.44936 9.4824 3.43319 9.56098L3.68437 11.8216C3.75889 12.4925 3.82136 13.0548 3.92936 13.4996C4.0107 13.8346 4.12652 14.1433 4.31901 14.4121L3.82159 14.7436C3.41589 15.0141 3.1722 15.4695 3.1722 15.9571V16.7611C3.1722 17.3364 3.63857 17.8027 4.21387 17.8027H13.3805C13.9559 17.8027 14.4222 17.3364 14.4222 16.7611V15.9571C14.4222 15.4695 14.1785 15.0141 13.7728 14.7436L13.2754 14.4121C13.4679 14.1433 13.5837 13.8347 13.6651 13.4996C13.773 13.055 13.8355 12.4923 13.91 11.8216ZM5.18395 15.3377C5.21817 15.3149 5.25838 15.3027 5.29952 15.3027H12.2949C12.336 15.3027 12.3762 15.3149 12.4104 15.3377L13.0795 15.7837C13.1374 15.8223 13.1722 15.8874 13.1722 15.9571V16.5527H4.4222V15.9571C4.4222 15.8874 4.45702 15.8223 4.51497 15.7837L5.18395 15.3377Z" fill="white"/>
</svg>
