<svg width="64" height="67" viewBox="0 0 64 67" fill="none" xmlns="http://www.w3.org/2000/svg">
<path d="M57.4079 35.5945C57.4079 49.8926 45.817 61.4835 31.5189 61.4835C17.2208 61.4835 5.62988 49.8926 5.62988 35.5945C5.62988 21.2964 17.2208 9.70551 31.5189 9.70551C45.817 9.70551 57.4079 21.2964 57.4079 35.5945Z" fill="#180839"/>
<path d="M57.4079 35.5945C57.4079 49.8926 45.817 61.4835 31.5189 61.4835C17.2208 61.4835 5.62988 49.8926 5.62988 35.5945C5.62988 21.2964 17.2208 9.70551 31.5189 9.70551C45.817 9.70551 57.4079 21.2964 57.4079 35.5945Z" fill="url(#paint0_radial_249_4335)" fill-opacity="0.9"/>
<path d="M57.4079 35.5945C57.4079 49.8926 45.817 61.4835 31.5189 61.4835C17.2208 61.4835 5.62988 49.8926 5.62988 35.5945C5.62988 21.2964 17.2208 9.70551 31.5189 9.70551C45.817 9.70551 57.4079 21.2964 57.4079 35.5945Z" fill="url(#paint1_radial_249_4335)" fill-opacity="0.85"/>
<path d="M57.4079 35.5945C57.4079 49.8926 45.817 61.4835 31.5189 61.4835C17.2208 61.4835 5.62988 49.8926 5.62988 35.5945C5.62988 21.2964 17.2208 9.70551 31.5189 9.70551C45.817 9.70551 57.4079 21.2964 57.4079 35.5945Z" fill="url(#paint2_radial_249_4335)" fill-opacity="0.8"/>
<path d="M57.4079 35.5945C57.4079 49.8926 45.817 61.4835 31.5189 61.4835C17.2208 61.4835 5.62988 49.8926 5.62988 35.5945C5.62988 21.2964 17.2208 9.70551 31.5189 9.70551C45.817 9.70551 57.4079 21.2964 57.4079 35.5945Z" fill="url(#paint3_radial_249_4335)" fill-opacity="0.88"/>
<path d="M22.2404 21.3721C20.2492 15.0914 29.4409 14.9401 32.6572 22.2915C34.2835 26.0086 33.9715 31.2932 33.622 36.5901C28.6238 30.7168 23.2844 24.6652 22.2404 21.3721Z" fill="url(#paint4_linear_249_4335)"/>
<path d="M35.0552 53.5423C51.4536 50.6484 58.3679 36.4642 52.1628 27.4379C49.2688 23.2282 44.7364 24.0097 35.0552 24.5895C25.374 25.1693 15.7521 26.7952 15.752 39.4488C15.7518 52.1024 27.5204 54.8719 35.0552 53.5423Z" fill="url(#paint5_radial_249_4335)"/>
<path d="M35.0552 53.5423C51.4536 50.6484 58.3679 36.4642 52.1628 27.4379C49.2688 23.2282 44.7364 24.0097 35.0552 24.5895C25.374 25.1693 15.7521 26.7952 15.752 39.4488C15.7518 52.1024 27.5204 54.8719 35.0552 53.5423Z" fill="url(#paint6_linear_249_4335)"/>
<path d="M20.501 38.6827C20.5007 30.219 23.1165 22.3242 24.4326 18.5866C24.9741 17.0487 27.0008 16.6108 28.3519 17.5234C30.6526 18.9107 35.2876 22.2809 39.9664 25.5119C44.8282 28.8694 51.8393 32.5813 48.6216 43.5883C46.1836 51.928 34.2881 51.5506 34.2881 51.5506C34.2881 51.5506 20.5014 51.3212 20.501 38.6827Z" fill="url(#paint7_linear_249_4335)"/>
<path d="M47.1058 51.1644C53.846 45.2669 56.1862 32.9388 51.667 25.2796C47.1478 17.6204 40.7094 15.8369 35.3524 16.088C29.9954 16.3391 19.1143 19.6887 18.6547 31.7133C18.1951 43.7379 24.4489 48.8382 30.9901 54.5849C33.5176 56.8054 40.3656 57.062 47.1058 51.1644Z" fill="url(#paint8_linear_249_4335)"/>
<path d="M23.6881 47.5128C24.0735 47.7408 24.4178 47.9624 24.675 48.1928C28.0301 51.1973 33.1734 50.8785 38.6201 49.4541C44.365 47.9517 53.6834 45.2443 55.1963 38.0744C56.0534 34.0126 52.9431 28.5564 48.7714 24.1293C44.9712 20.0967 40.335 16.918 36.1352 16.4252C35.0829 16.3017 33.7988 16.2901 32.4209 16.4694C24.4429 18.1153 20.1363 22.5759 19.4785 31.6533C18.8207 40.7308 19.5632 42.483 23.6881 47.5128Z" fill="url(#paint9_linear_249_4335)" fill-opacity="0.78"/>
<path d="M13.8873 37.9429C12.6375 29.2601 16.3198 19.8995 24.741 19.8995C31.3894 19.8995 35.1463 24.9822 40.2538 28.3208C46.5262 32.4208 51.3344 35.2483 51.3344 39.4013C51.3344 46.9361 40.1006 50.9378 29.3856 46.6485C21.5675 43.5188 15.1371 46.6256 13.8873 37.9429Z" fill="url(#paint10_radial_249_4335)" fill-opacity="0.8"/>
<path d="M13.8873 37.9429C12.6375 29.2601 16.3198 19.8995 24.741 19.8995C31.3894 19.8995 35.1463 24.9822 40.2538 28.3208C46.5262 32.4208 51.3344 35.2483 51.3344 39.4013C51.3344 46.9361 40.1006 50.9378 29.3856 46.6485C21.5675 43.5188 15.1371 46.6256 13.8873 37.9429Z" fill="url(#paint11_linear_249_4335)"/>
<path d="M34.2661 50.708C37.0235 58.291 43.9941 55.9153 42.9211 49.9417C42.4107 47.1002 38.1568 41.9184 33.6221 36.5898C33.2804 41.7686 32.903 46.9592 34.2661 50.708Z" fill="url(#paint12_radial_249_4335)"/>
<path d="M34.2661 50.708C37.0235 58.291 43.9941 55.9153 42.9211 49.9417C42.4107 47.1002 38.1568 41.9184 33.6221 36.5898C33.2804 41.7686 32.903 46.9592 34.2661 50.708Z" fill="url(#paint13_linear_249_4335)"/>
<g filter="url(#filter0_f_249_4335)">
<path d="M38.0377 35.1042C38.0377 38.7045 35.1191 41.623 31.5188 41.623C27.9186 41.623 25 38.7045 25 35.1042C25 33.7199 25.4315 32.4364 26.1673 31.3808C26.9116 30.3131 27.4167 30.1744 26.566 29.1893C25.461 27.9095 24.4896 26.3224 29.9051 25.467C34.9567 24.6687 37.4976 24.3696 36.1354 29.0311C35.8244 30.0955 36.1681 30.4028 36.8154 31.3032C37.5846 32.3732 38.0377 33.6858 38.0377 35.1042Z" fill="white"/>
</g>
<defs>
<filter id="filter0_f_249_4335" x="0" y="0" width="63.0381" height="66.623" filterUnits="userSpaceOnUse" color-interpolation-filters="sRGB">
<feFlood flood-opacity="0" result="BackgroundImageFix"/>
<feBlend mode="normal" in="SourceGraphic" in2="BackgroundImageFix" result="shape"/>
<feGaussianBlur stdDeviation="12.5" result="effect1_foregroundBlur_249_4335"/>
</filter>
<radialGradient id="paint0_radial_249_4335" cx="0" cy="0" r="1" gradientUnits="userSpaceOnUse" gradientTransform="translate(23.0935 18.2076) rotate(63.1327) scale(19.4908 23.1213)">
<stop stop-color="#05FBFB"/>
<stop offset="1" stop-color="#7D7194" stop-opacity="0"/>
</radialGradient>
<radialGradient id="paint1_radial_249_4335" cx="0" cy="0" r="1" gradientUnits="userSpaceOnUse" gradientTransform="translate(56.0293 27.2458) rotate(161.19) scale(25.8933)">
<stop stop-color="#CCCA47"/>
<stop offset="1" stop-color="#4A8F9F" stop-opacity="0"/>
</radialGradient>
<radialGradient id="paint2_radial_249_4335" cx="0" cy="0" r="1" gradientUnits="userSpaceOnUse" gradientTransform="translate(40.0976 60.105) rotate(-108.939) scale(16.5197)">
<stop stop-color="#13B8FF"/>
<stop offset="1" stop-color="#5C4763" stop-opacity="0"/>
</radialGradient>
<radialGradient id="paint3_radial_249_4335" cx="0" cy="0" r="1" gradientUnits="userSpaceOnUse" gradientTransform="translate(3.33206 44.9392) rotate(-18.3418) scale(29.6955 41.2775)">
<stop stop-color="#AE008E"/>
<stop offset="1" stop-color="#3D3041" stop-opacity="0"/>
</radialGradient>
<linearGradient id="paint4_linear_249_4335" x1="21.9609" y1="21.0659" x2="33.0626" y2="19.2276" gradientUnits="userSpaceOnUse">
<stop stop-color="#E375A0"/>
<stop offset="1" stop-color="#E375A0" stop-opacity="0"/>
</linearGradient>
<radialGradient id="paint5_radial_249_4335" cx="0" cy="0" r="1" gradientUnits="userSpaceOnUse" gradientTransform="translate(25.0963 28.5723) rotate(69.3339) scale(18.6646 22.4815)">
<stop stop-color="#B850C1"/>
<stop offset="1" stop-color="#DCADE0" stop-opacity="0"/>
</radialGradient>
<linearGradient id="paint6_linear_249_4335" x1="36.3176" y1="24.0987" x2="36.1442" y2="29.9079" gradientUnits="userSpaceOnUse">
<stop stop-color="#B850C1"/>
<stop offset="1" stop-color="#DCADE0" stop-opacity="0"/>
</linearGradient>
<linearGradient id="paint7_linear_249_4335" x1="23.4116" y1="42.6657" x2="37.8115" y2="37.1508" gradientUnits="userSpaceOnUse">
<stop stop-color="#7EA1E4"/>
<stop offset="1" stop-color="#70CBFF" stop-opacity="0"/>
</linearGradient>
<linearGradient id="paint8_linear_249_4335" x1="53.9236" y1="34.087" x2="36.3181" y2="42.0212" gradientUnits="userSpaceOnUse">
<stop stop-color="#5BEC62"/>
<stop offset="1" stop-color="#5BEC62" stop-opacity="0"/>
</linearGradient>
<linearGradient id="paint9_linear_249_4335" x1="24.8724" y1="32.2201" x2="48.2237" y2="36.5615" gradientUnits="userSpaceOnUse">
<stop stop-color="#FEE685" stop-opacity="0"/>
<stop offset="1" stop-color="#FEE685"/>
</linearGradient>
<radialGradient id="paint10_radial_249_4335" cx="0" cy="0" r="1" gradientUnits="userSpaceOnUse" gradientTransform="translate(23.6586 24.3586) rotate(84.3771) scale(17.087 19.0842)">
<stop stop-color="#65ECE8"/>
<stop offset="1" stop-color="#8BECE9" stop-opacity="0"/>
</radialGradient>
<linearGradient id="paint11_linear_249_4335" x1="44.2944" y1="43.7805" x2="49.3233" y2="34.1563" gradientUnits="userSpaceOnUse">
<stop stop-color="#F67BF4" stop-opacity="0"/>
<stop offset="0.75" stop-color="#F27BF6"/>
</linearGradient>
<radialGradient id="paint12_radial_249_4335" cx="0" cy="0" r="1" gradientUnits="userSpaceOnUse" gradientTransform="translate(35.3604 53.6954) rotate(-68.2079) scale(10.7307 13.777)">
<stop stop-color="#E375A0" stop-opacity="0"/>
<stop offset="1" stop-color="#FF91C6"/>
</radialGradient>
<linearGradient id="paint13_linear_249_4335" x1="34.2881" y1="38.836" x2="35.0541" y2="44.0445" gradientUnits="userSpaceOnUse">
<stop stop-color="white"/>
<stop offset="1" stop-color="white" stop-opacity="0"/>
</linearGradient>
</defs>
</svg>
