<svg width="15" height="13" viewBox="0 0 15 13" fill="none" xmlns="http://www.w3.org/2000/svg">
<path fill-rule="evenodd" clip-rule="evenodd" d="M7.48739 0.0131203C6.889 0.0553821 6.22891 0.184377 5.62083 0.377855C5.46349 0.427928 5.33478 0.471703 5.33478 0.475154C5.33481 0.478606 5.43277 0.586198 5.55253 0.714224C5.80895 0.988411 5.98531 1.3252 6.05678 1.67722C6.16439 2.20731 6.0128 2.5211 5.63588 2.54831C5.49485 2.55849 5.45002 2.54877 5.3657 2.48961C5.21871 2.38653 5.16259 2.26616 5.14414 2.0145C5.1189 1.66993 4.98345 1.44233 4.67205 1.22128C4.30886 0.963436 3.98382 0.933647 3.47646 1.11169C2.84321 1.33386 2.29493 1.68286 1.87004 2.13417C1.46995 2.55912 1.1942 3.03681 1.13684 3.40427C1.02318 4.13247 1.57138 5.00092 2.35789 5.3388C2.5084 5.40344 2.68282 5.44848 2.89297 5.47694C3.21904 5.52111 3.29661 5.55677 3.41127 5.71525C3.49609 5.83247 3.49609 6.11965 3.41127 6.23687C3.27954 6.41893 3.21323 6.44566 2.90453 6.44112C1.95081 6.42711 0.916652 5.71701 0.452424 4.7574L0.321251 4.48624L0.272607 4.60298C-0.196755 5.72936 -0.0604469 6.78945 0.684817 7.80906C0.7863 7.9479 0.93182 8.1576 1.00819 8.27506C1.28647 8.70304 1.71126 9.03695 2.15152 9.17379C2.41129 9.25453 2.94936 9.24817 3.29204 9.16032C4.09457 8.95461 4.54246 8.3931 4.70734 7.38602C4.75273 7.10893 4.75279 7.07114 4.70816 6.85687C4.63948 6.52707 4.70587 6.33311 4.92735 6.21649C5.16444 6.09171 5.4379 6.18398 5.56057 6.43016C5.66111 6.63194 5.70286 7.02643 5.66235 7.39232C5.57307 8.1992 5.27152 8.89927 4.7855 9.42818L4.5443 9.69068L4.66814 9.78208C4.8538 9.91906 5.1282 10.0537 5.36913 10.126C5.68127 10.2196 6.31062 10.2393 6.75789 10.1695L7.09423 10.1171L7.24869 10.2614C7.52433 10.5188 7.94857 10.6753 8.48632 10.718L8.74025 10.7381L9.47213 11.5773C9.9503 12.1256 10.2372 12.431 10.2998 12.4583C10.3708 12.4892 10.552 12.5 10.9972 12.5C11.5459 12.5 11.6074 12.4947 11.6982 12.4395C11.9413 12.2917 11.9876 12.1111 11.8895 11.6931C11.8505 11.527 11.8186 11.3799 11.8186 11.3662C11.8186 11.3525 11.8664 11.332 11.9247 11.3207C12.1218 11.2825 12.5642 11.1205 12.8421 10.9847C13.3771 10.7232 13.9135 10.2867 14.2447 9.84329C14.4313 9.59341 14.6217 9.20776 14.6951 8.93063C14.7477 8.73222 14.7564 8.63392 14.7459 8.35544C14.7317 7.98047 14.6742 7.78224 14.5034 7.52037L14.4054 7.37022L14.5679 7.11985C14.8908 6.62201 15 6.26024 15 5.68846C15 5.36977 14.9873 5.24895 14.9332 5.05326C14.8018 4.57824 14.5557 4.13885 14.1773 3.70337C14.0822 3.59396 13.8879 3.35864 13.7455 3.18049C13.6031 3.00233 13.3456 2.70537 13.1732 2.52064L12.8599 2.18476L12.7653 2.42295C12.5221 3.03541 12.1143 3.52578 11.6581 3.75441C11.1866 3.99072 10.7696 3.79516 10.8001 3.35201C10.8159 3.12318 10.9134 3.00575 11.1723 2.90363C11.3414 2.83697 11.4065 2.79014 11.5373 2.64098C11.8358 2.30065 11.9934 1.89719 11.9346 1.62425C11.8884 1.41033 11.8002 1.29747 11.5399 1.1195C11.1526 0.854633 11.0263 0.799293 10.8086 0.799293C10.6409 0.799293 10.588 0.815308 10.3657 0.933344C9.86967 1.19669 9.57183 1.49658 9.36534 1.94051C9.15935 2.38335 9.08744 2.7147 9.06441 3.32713C9.04836 3.7539 9.03587 3.85592 8.99121 3.92449C8.80708 4.20742 8.40681 4.19882 8.19801 3.90753C8.14083 3.82773 8.13669 3.78326 8.13728 3.25665C8.13786 2.73516 8.14438 2.66559 8.22127 2.35838C8.42753 1.53421 8.73755 0.971155 9.26964 0.454296L9.53231 0.199151L9.32019 0.149381C8.80242 0.0278636 8.06003 -0.0273251 7.48739 0.0131203ZM6.81929 2.82946C7.10895 3.01419 7.14607 3.64273 6.89469 4.10589L6.81709 4.2489L6.96329 4.40205C7.13688 4.5839 7.28414 4.64297 7.42913 4.58887C7.66413 4.50117 7.88455 4.57658 8.02591 4.79303C8.13951 4.96692 8.10066 5.24108 7.94097 5.39281C7.83171 5.49662 7.55432 5.58251 7.32832 5.58251C6.93307 5.58251 6.54348 5.38751 6.23422 5.03486L6.07614 4.85461L5.93875 4.91537C5.43394 5.13867 4.81768 5.15108 4.40791 4.94622C4.17827 4.83142 3.93723 4.5856 3.8948 4.42297C3.83178 4.18157 3.9355 3.95013 4.15064 3.85192C4.34882 3.76146 4.50455 3.79355 4.68933 3.96287C4.79753 4.06205 4.86709 4.10019 4.96819 4.11584C5.23711 4.15747 5.66211 4.02009 5.90823 3.81199C6.08142 3.66556 6.12552 3.5537 6.10618 3.31006C6.09436 3.16102 6.10231 3.08764 6.13799 3.01646C6.18898 2.91468 6.33925 2.78345 6.43498 2.75705C6.54075 2.7279 6.71006 2.7598 6.81929 2.82946ZM9.91321 4.33185C10.2896 4.52357 10.6136 4.98603 10.7213 5.48527C10.8015 5.8573 10.7443 6.54841 10.6028 6.91569C10.5903 6.94838 10.6398 7.00394 10.769 7.10196C11.1721 7.40772 11.5202 7.85871 11.6481 8.24082C11.7412 8.51873 11.7461 9.02624 11.6573 9.18187C11.4645 9.5196 11.0284 9.52063 10.8372 9.18384C10.7941 9.10776 10.7794 9.02297 10.7776 8.83884C10.7758 8.65054 10.76 8.56245 10.7088 8.45358C10.5666 8.15161 10.2497 7.87015 9.79782 7.64468C9.47293 7.48253 9.18535 7.41832 8.86039 7.4353C8.56427 7.4508 8.41183 7.51698 8.28027 7.68721C8.09638 7.9251 8.01297 7.99972 7.89391 8.03281C7.67607 8.09333 7.45952 7.99128 7.36124 7.78178C7.28053 7.60974 7.28461 7.50418 7.3796 7.30752C7.55153 6.95153 7.98011 6.62437 8.43002 6.50576C8.66584 6.44357 9.17781 6.44403 9.47557 6.50669C9.60516 6.53397 9.71697 6.55032 9.72404 6.54302C9.75273 6.51338 9.82261 6.10212 9.82311 5.95996C9.82376 5.76097 9.7618 5.51972 9.6773 5.39251C9.64016 5.33659 9.54076 5.24108 9.45641 5.18023C9.2829 5.05514 9.2075 4.92067 9.2075 4.73633C9.2075 4.53132 9.32887 4.35431 9.51555 4.28698C9.65761 4.23576 9.74358 4.24548 9.91321 4.33185ZM12.9055 5.15856C13.1276 5.22222 13.2869 5.51076 13.2259 5.7389C13.19 5.87304 13.1007 5.99386 12.9962 6.04963C12.8992 6.10136 12.1648 6.24852 12.0035 6.24852C11.8722 6.24852 11.7285 6.16309 11.6306 6.02683C11.5414 5.90256 11.5449 5.63282 11.6376 5.4988C11.7358 5.35673 11.8333 5.31546 12.2987 5.21889C12.7818 5.11868 12.7704 5.11984 12.9055 5.15856Z" fill="white"/>
</svg>
